<mxfile host="Electron" modified="2024-06-29T15:31:22.572Z" agent="Mozilla/5.0 (Macintosh; Intel Mac OS X 10_15_7) AppleWebKit/537.36 (KHTML, like Gecko) draw.io/23.0.2 Chrome/120.0.6099.109 Electron/28.1.0 Safari/537.36" etag="dj27gFzF5DbKuXiIj5QO" version="23.0.2" type="device">
  <diagram name="Page-1" id="cTcXGuVlJ4IMSFhP2NHi">
    <mxGraphModel dx="1995" dy="440" grid="1" gridSize="10" guides="1" tooltips="1" connect="1" arrows="1" fold="1" page="0" pageScale="1" pageWidth="827" pageHeight="1169" math="0" shadow="0">
      <root>
        <mxCell id="0" />
        <mxCell id="1" parent="0" />
        <mxCell id="kl_BWKaGxSFyJq98Dep9-170" value="&amp;nbsp;Alerts&amp;nbsp;" style="edgeStyle=orthogonalEdgeStyle;rounded=0;orthogonalLoop=1;jettySize=auto;html=1;entryX=0;entryY=0.5;entryDx=0;entryDy=0;" edge="1" parent="1" source="kl_BWKaGxSFyJq98Dep9-100" target="kl_BWKaGxSFyJq98Dep9-150">
          <mxGeometry x="0.6" relative="1" as="geometry">
            <Array as="points">
              <mxPoint x="520" y="925" />
              <mxPoint x="520" y="1065" />
            </Array>
            <mxPoint as="offset" />
          </mxGeometry>
        </mxCell>
        <mxCell id="kl_BWKaGxSFyJq98Dep9-100" value="" style="rounded=0;whiteSpace=wrap;html=1;fontFamily=IBM Plex Sans;fontSource=fonts%2FIBMPlexSans-Regular.woff;fontSize=14;spacingBottom=-28;spacingTop=0;labelPosition=-100;verticalLabelPosition=top;align=center;verticalAlign=bottom;spacingLeft=9;spacing=0;expand=0;recursiveResize=0;spacingRight=0;container=0;collapsible=0;strokeColor=#1192E8;fillColor=none;" vertex="1" parent="1">
          <mxGeometry x="280" y="760" width="210" height="330" as="geometry">
            <mxRectangle width="670" as="alternateBounds" />
          </mxGeometry>
        </mxCell>
        <mxCell id="kl_BWKaGxSFyJq98Dep9-97" value="Activity&lt;br&gt;Tracking&lt;br&gt;events" style="edgeStyle=orthogonalEdgeStyle;rounded=0;orthogonalLoop=1;jettySize=auto;html=1;exitX=1;exitY=0.5;exitDx=0;exitDy=0;entryX=0;entryY=0.5;entryDx=0;entryDy=0;" edge="1" parent="1" source="kl_BWKaGxSFyJq98Dep9-32" target="kl_BWKaGxSFyJq98Dep9-66">
          <mxGeometry x="0.0526" relative="1" as="geometry">
            <Array as="points">
              <mxPoint x="-130" y="855" />
              <mxPoint x="-130" y="835" />
            </Array>
            <mxPoint as="offset" />
          </mxGeometry>
        </mxCell>
        <mxCell id="kl_BWKaGxSFyJq98Dep9-98" value="Platform&lt;br&gt;Logs" style="edgeStyle=orthogonalEdgeStyle;rounded=0;orthogonalLoop=1;jettySize=auto;html=1;exitX=1;exitY=0.5;exitDx=0;exitDy=0;entryX=0;entryY=0.5;entryDx=0;entryDy=0;" edge="1" parent="1" source="kl_BWKaGxSFyJq98Dep9-32" target="kl_BWKaGxSFyJq98Dep9-79">
          <mxGeometry x="0.1613" relative="1" as="geometry">
            <Array as="points">
              <mxPoint x="-130" y="855" />
              <mxPoint x="-130" y="905" />
            </Array>
            <mxPoint as="offset" />
          </mxGeometry>
        </mxCell>
        <mxCell id="kl_BWKaGxSFyJq98Dep9-32" value="" style="rounded=0;whiteSpace=wrap;html=1;fontFamily=IBM Plex Sans;fontSource=fonts%2FIBMPlexSans-Regular.woff;fontSize=14;spacingBottom=-28;spacingTop=0;labelPosition=-100;verticalLabelPosition=top;align=center;verticalAlign=bottom;spacingLeft=9;spacing=0;expand=0;recursiveResize=0;spacingRight=0;container=1;collapsible=0;strokeColor=#1192E8;fillColor=none;" vertex="1" parent="1">
          <mxGeometry x="-470" y="760" width="320" height="190" as="geometry">
            <mxRectangle width="670" as="alternateBounds" />
          </mxGeometry>
        </mxCell>
        <mxCell id="kl_BWKaGxSFyJq98Dep9-33" value="" style="rounded=0;whiteSpace=wrap;html=1;strokeColor=none;fillColor=#1192E8;fontFamily=IBM Plex Sans;fontSource=fonts%2FIBMPlexSans-Regular.woff;" vertex="1" parent="kl_BWKaGxSFyJq98Dep9-32">
          <mxGeometry width="7" height="37" as="geometry" />
        </mxCell>
        <mxCell id="kl_BWKaGxSFyJq98Dep9-34" value="Service instances" style="text;html=1;strokeColor=none;fillColor=none;align=left;verticalAlign=middle;whiteSpace=wrap;rounded=0;fontFamily=IBM Plex Sans;fontSource=fonts%2FIBMPlexSans-Regular.woff;fontSize=14;" vertex="1" parent="kl_BWKaGxSFyJq98Dep9-32">
          <mxGeometry x="51" y="8" width="119" height="20" as="geometry" />
        </mxCell>
        <mxCell id="kl_BWKaGxSFyJq98Dep9-35" value="" style="shape=image;aspect=fixed;image=data:image/svg+xml,PD94bWwgdmVyc2lvbj0iMS4wIiBlbmNvZGluZz0iVVRGLTgiPz4KPHN2ZyB3aWR0aD0iMzNweCIgaGVpZ2h0PSIyNnB4IiB2aWV3Qm94PSIwIDAgMzMgMjYiIHZlcnNpb249IjEuMSIgeG1sbnM9Imh0dHA6Ly93d3cudzMub3JnLzIwMDAvc3ZnIiB4bWxuczp4bGluaz0iaHR0cDovL3d3dy53My5vcmcvMTk5OS94bGluayI+CiAgICA8IS0tIEdlbmVyYXRvcjogU2tldGNoIDUzICg3MjUyMCkgLSBodHRwczovL3NrZXRjaGFwcC5jb20gLS0+CiAgICA8dGl0bGU+Q2xvdWQgU2VydmljZXMgQmxhY2s8L3RpdGxlPgogICAgPGRlc2M+Q3JlYXRlZCB3aXRoIFNrZXRjaC48L2Rlc2M+CiAgICA8ZyBpZD0iUGFnZS0xIiBzdHJva2U9Im5vbmUiIHN0cm9rZS13aWR0aD0iMSIgZmlsbD0ibm9uZSIgZmlsbC1ydWxlPSJldmVub2RkIj4KICAgICAgICA8ZyBpZD0iQ2xvdWQtU2VydmljZXMtQmxhY2siIHRyYW5zZm9ybT0idHJhbnNsYXRlKDAuMDYyNTAwLCAtMS4wMDAwMDApIiBmaWxsPSIjMDAwMDAwIj4KICAgICAgICAgICAgPGcgaWQ9Ikdyb3VwLTMiIHRyYW5zZm9ybT0idHJhbnNsYXRlKDAuMDAwMDAwLCAwLjAwMjAwMCkiPgogICAgICAgICAgICAgICAgPHBhdGggZD0iTTI1LjgyMzEsOS4xMjQgQzI0Ljc4NzEsMy43IDE5LjU1MTEsMC4xNDIgMTQuMTI2MSwxLjE3NyBDMTAuMDk4MSwxLjk0NiA2Ljk0ODEsNS4wOTYgNi4xNzkxLDkuMTI0IEMwLjA5MjEsMTAuMjExIC0yLjk1NzksMTguMzYzIDMuOTY0MSwyMy42MzIgQzQuMjg1MSwyMy44NzcgNC42ODkxLDI0IDUuMDkzMSwyNCBMOC4wMDExLDI0IEw4LjAwMTEsMjIgTDUuNDQ4MSwyMiBDNS4xMDQxLDIyIDQuNzYyMSwyMS44NzcgNC41MTExLDIxLjY0MiBDLTAuMzUzOSwxNy4wODYgMi41ODYxLDExLjMzIDcuMTI0MSwxMS4wMiBMNy45NjExLDEwLjk2MyBMOC4zNTYxLDcuMjk4IEM4LjQwNzEsNi44MzIgOC42MTMxLDYuMzg2IDguOTU3MSw2LjA2NyBDMTUuNjAxMSwtMC4wOTQgMjMuMjc2MSwzLjkzNyAyMy45NTIxLDEwLjEzIEwyNC4wNDIxLDEwLjk2MyBMMjYuOTI2MSwxMS4xNiBDMjcuMjY5MSwxMS4xODQgMjcuNjAxMSwxMS4zMyAyNy44MzUxLDExLjU4MiBDMzIuMzc5MSwxNi40NiAyOS4wNTAxLDIyLjAwMyAyNC41MDExLDIyIEwyNC4wMDExLDIyIEwyNC4wMDExLDI0IEwyNy4yMTUxLDI0IEMyNy42NjExLDI0IDI4LjEwMzEsMjMuODQ4IDI4LjQzNzEsMjMuNTUyIEMzNC45MTQxLDE3LjgxNiAzMS42NjgxLDEwLjE2OCAyNS44MjMxLDkuMTI0IiBpZD0iRmlsbC0xIj48L3BhdGg+CiAgICAgICAgICAgIDwvZz4KICAgICAgICAgICAgPHBhdGggZD0iTTE1LjU3NCwyMi44MjU3IEMxMy45MTcsMjIuODI1NyAxMi41NzQsMjEuNDgyNyAxMi41NzQsMTkuODI1NyBDMTIuNTc0LDE4LjE2ODcgMTMuOTE3LDE2LjgyNTcgMTUuNTc0LDE2LjgyNTcgQzE3LjIzMSwxNi44MjU3IDE4LjU3NCwxOC4xNjg3IDE4LjU3NCwxOS44MjU3IEMxOC41NzIsMjEuNDgxNyAxNy4yMywyMi44MjM3IDE1LjU3NCwyMi44MjU3IEwxNS41NzQsMjIuODI1NyBaIE0yMy4wMDEsMjEuMDAxNyBMMjMuMDAxLDE5LjAwMTcgTDIwLjksMTkuMDAxNyBDMjAuNzcxLDE4LjM3NTcgMjAuNTIzLDE3Ljc4MDcgMjAuMTY4LDE3LjI0ODcgTDIxLjY1OCwxNS43NTk3IEwyMC4yNDQsMTQuMzQ1NyBMMTguNzU0LDE1LjgzNDcgQzE4LjIyMiwxNS40ODA3IDE3LjYyNywxNS4yMzE3IDE3LjAwMSwxNS4xMDI3IEwxNy4wMDEsMTMuMDAxNyBMMTUuMDAxLDEzLjAwMTcgTDE1LjAwMSwxNS4xMDI3IEMxNC4zNzUsMTUuMjMxNyAxMy43OCwxNS40ODA3IDEzLjI0OCwxNS44MzQ3IEwxMS43NTgsMTQuMzQ0NyBMMTAuMzQ1LDE1Ljc1ODcgTDExLjgzNCwxNy4yNDg3IEMxMS40OCwxNy43ODA3IDExLjIzMSwxOC4zNzU3IDExLjEwMiwxOS4wMDE3IEw5LjAwMSwxOS4wMDE3IEw5LjAwMSwyMS4wMDE3IEwxMS4xMDIsMjEuMDAxNyBDMTEuMjMxLDIxLjYyNzcgMTEuNDgsMjIuMjIyNyAxMS44MzQsMjIuNzU0NyBMMTAuMzQ0LDI0LjI0NDcgTDExLjc1OCwyNS42NTg3IEwxMy4yNDgsMjQuMTY4NyBDMTMuNzgsMjQuNTIzNyAxNC4zNzUsMjQuNzcxNyAxNS4wMDEsMjQuOTAwNyBMMTUuMDAxLDI3LjAwMTcgTDE3LjAwMSwyNy4wMDE3IEwxNy4wMDEsMjQuOTAwNyBDMTcuNjI3LDI0Ljc3MTcgMTguMjIyLDI0LjUyMzcgMTguNzU0LDI0LjE2ODcgTDIwLjI0NCwyNS42NTg3IEwyMS42NTgsMjQuMjQ0NyBMMjAuMTY4LDIyLjc1NDcgQzIwLjUyMywyMi4yMjI3IDIwLjc3MSwyMS42Mjc3IDIwLjksMjEuMDAxNyBMMjMuMDAxLDIxLjAwMTcgWiIgaWQ9IkZpbGwtNCI+PC9wYXRoPgogICAgICAgIDwvZz4KICAgIDwvZz4KPC9zdmc+;fontFamily=IBM Plex Sans;fontSource=fonts%2FIBMPlexSans-Regular.woff;" vertex="1" parent="kl_BWKaGxSFyJq98Dep9-32">
          <mxGeometry x="20" y="6.65" width="25" height="19.71" as="geometry" />
        </mxCell>
        <mxCell id="kl_BWKaGxSFyJq98Dep9-28" value="" style="group" vertex="1" connectable="0" parent="kl_BWKaGxSFyJq98Dep9-32">
          <mxGeometry x="20" y="50" width="130" height="50" as="geometry" />
        </mxCell>
        <mxCell id="kl_BWKaGxSFyJq98Dep9-18" value="" style="rounded=0;whiteSpace=wrap;html=1;fontFamily=IBM Plex Sans;fontSource=fonts%2FIBMPlexSans-Regular.woff;fontSize=14;spacingBottom=-28;spacingTop=0;labelPosition=-100;verticalLabelPosition=top;align=center;verticalAlign=bottom;spacingLeft=9;spacing=0;expand=0;recursiveResize=0;spacingRight=0;container=0;collapsible=0;strokeColor=#1192E8;fillColor=none;" vertex="1" parent="kl_BWKaGxSFyJq98Dep9-28">
          <mxGeometry width="130" height="50" as="geometry">
            <mxRectangle width="670" as="alternateBounds" />
          </mxGeometry>
        </mxCell>
        <mxCell id="kl_BWKaGxSFyJq98Dep9-19" value="Platform" style="text;html=1;strokeColor=none;fillColor=none;align=left;verticalAlign=middle;whiteSpace=wrap;rounded=0;fontFamily=IBM Plex Sans;fontSource=fonts%2FIBMPlexSans-Regular.woff;fontSize=14;" vertex="1" parent="kl_BWKaGxSFyJq98Dep9-28">
          <mxGeometry x="50" y="10" width="70" height="30" as="geometry" />
        </mxCell>
        <mxCell id="kl_BWKaGxSFyJq98Dep9-27" value="" style="shape=image;aspect=fixed;image=data:image/svg+xml,PHN2ZyBpZD0iaWNvbiIgeG1sbnM9Imh0dHA6Ly93d3cudzMub3JnLzIwMDAvc3ZnIiB3aWR0aD0iMzIiIGhlaWdodD0iMzIiIHZpZXdCb3g9IjAgMCAzMiAzMiI+PGRlZnM+PHN0eWxlPi5jbHMtMXtmaWxsOm5vbmU7fTwvc3R5bGU+PC9kZWZzPjx0aXRsZT5pYm0tY2xvdWQ8L3RpdGxlPjxwYXRoIGQ9Ik0yNC41ODA1LDEzLjY1QTkuNzMyNyw5LjczMjcsMCwwLDAsNi4yODYsMTcuNTM4Nyw2Ljc1LDYuNzUsMCwwLDAsNywzMUgyM2E4Ljc0NjUsOC43NDY1LDAsMCwwLDEuNTgwNS0xNy4zNVpNMjMsMjkuNUg3YTUuMjM3Myw1LjIzNzMsMCwwLDEtLjY5OTMtMTAuNDI5Myw5LjcyNjUsOS43MjY1LDAsMCwwLDEuMTAzNiwzLjc4MzguNzUuNzUsMCwxLDAsMS4zMjEzLS43MDlBOC4yNSw4LjI1LDAsMCwxLDIyLjc1MiwxMy41MTMzYTguNzU0LDguNzU0LDAsMCwwLTYuMzE1LDIuOTUuNzUuNzUsMCwxLDAsMS4xMjQ1Ljk5MjJBNy4yNSw3LjI1LDAsMSwxLDIzLDI5LjVaIiB0cmFuc2Zvcm09InRyYW5zbGF0ZSgwKSIvPjxwYXRoIGQ9Ik0zMS44OTgzLDEwLjI1NDhhLjc1ODIuNzU4MiwwLDAsMC0xLjAzNjQtLjI3NzZsLTMuMDIsMS43NDM4QS43NTg3Ljc1ODcsMCwxLDAsMjguNiwxMy4wMzVsMy4wMi0xLjc0MzhBLjc1ODkuNzU4OSwwLDAsMCwzMS44OTgzLDEwLjI1NDhaIiB0cmFuc2Zvcm09InRyYW5zbGF0ZSgwKSIvPjxwYXRoIGQ9Ik0yMi42NzY0LDcuODdhLjc1ODMuNzU4MywwLDAsMCwxLjAzNjQtLjI3NzZsMS43NDM4LTMuMDJhLjc1ODcuNzU4NywwLDAsMC0xLjMxNC0uNzU4OGwtMS43NDM4LDMuMDJBLjc1ODguNzU4OCwwLDAsMCwyMi42NzY0LDcuODdaIiB0cmFuc2Zvcm09InRyYW5zbGF0ZSgwKSIvPjxwYXRoIGQ9Ik0xNiw2LjA4MTFhLjc1OS43NTksMCwwLDAsLjc1ODgtLjc1ODhWMS44MzQ3YS43NTg4Ljc1ODgsMCwxLDAtMS41MTc1LDBWNS4zMjIzQS43NTg5Ljc1ODksMCwwLDAsMTYsNi4wODExWiIgdHJhbnNmb3JtPSJ0cmFuc2xhdGUoMCkiLz48cGF0aCBkPSJNOC4yODczLDcuNTkyMmEuNzU4Ny43NTg3LDAsMCwwLDEuMzE0LS43NTg4bC0xLjc0MzgtMy4wMmEuNzU4Ny43NTg3LDAsMSwwLTEuMzE0Ljc1ODhaIiB0cmFuc2Zvcm09InRyYW5zbGF0ZSgwKSIvPjxwYXRoIGQ9Ik00LjE1ODUsMTEuNzIxbC0zLjAyLTEuNzQzOGEuNzU4Ny43NTg3LDAsMSwwLS43NTg4LDEuMzE0TDMuNCwxMy4wMzVhLjc1ODcuNzU4NywwLDEsMCwuNzU4OC0xLjMxNFoiIHRyYW5zZm9ybT0idHJhbnNsYXRlKDApIi8+PHJlY3QgaWQ9Il9UcmFuc3BhcmVudF9SZWN0YW5nbGVfIiBkYXRhLW5hbWU9IiZsdDtUcmFuc3BhcmVudCBSZWN0YW5nbGUmZ3Q7IiBjbGFzcz0iY2xzLTEiIHdpZHRoPSIzMiIgaGVpZ2h0PSIzMiIvPjwvc3ZnPg==;fontFamily=IBM Plex Sans;fontSource=fonts%2FIBMPlexSans-Regular.woff;" vertex="1" parent="kl_BWKaGxSFyJq98Dep9-28">
          <mxGeometry x="10" y="10" width="30" height="30" as="geometry" />
        </mxCell>
        <mxCell id="kl_BWKaGxSFyJq98Dep9-29" value="" style="group" vertex="1" connectable="0" parent="kl_BWKaGxSFyJq98Dep9-32">
          <mxGeometry x="20" y="120" width="130" height="50" as="geometry" />
        </mxCell>
        <mxCell id="kl_BWKaGxSFyJq98Dep9-8" value="" style="rounded=0;whiteSpace=wrap;html=1;fontFamily=IBM Plex Sans;fontSource=fonts%2FIBMPlexSans-Regular.woff;fontSize=14;spacingBottom=-28;spacingTop=0;labelPosition=-100;verticalLabelPosition=top;align=center;verticalAlign=bottom;spacingLeft=9;spacing=0;expand=0;recursiveResize=0;spacingRight=0;container=0;collapsible=0;strokeColor=#1192E8;fillColor=none;" vertex="1" parent="kl_BWKaGxSFyJq98Dep9-29">
          <mxGeometry width="130" height="50" as="geometry">
            <mxRectangle width="670" as="alternateBounds" />
          </mxGeometry>
        </mxCell>
        <mxCell id="kl_BWKaGxSFyJq98Dep9-7" value="Containers" style="text;html=1;strokeColor=none;fillColor=none;align=left;verticalAlign=middle;whiteSpace=wrap;rounded=0;fontFamily=IBM Plex Sans;fontSource=fonts%2FIBMPlexSans-Regular.woff;fontSize=14;" vertex="1" parent="kl_BWKaGxSFyJq98Dep9-29">
          <mxGeometry x="50" y="10" width="70" height="30" as="geometry" />
        </mxCell>
        <mxCell id="kl_BWKaGxSFyJq98Dep9-17" value="" style="shape=image;aspect=fixed;image=data:image/svg+xml,PHN2ZyBpZD0iaWNvbiIgeG1sbnM9Imh0dHA6Ly93d3cudzMub3JnLzIwMDAvc3ZnIiB3aWR0aD0iMzIiIGhlaWdodD0iMzIiIHZpZXdCb3g9IjAgMCAzMiAzMiI+CiAgPGRlZnM+CiAgICA8c3R5bGU+CiAgICAgIC5jbHMtMSB7CiAgICAgICAgZmlsbDogbm9uZTsKICAgICAgfQogICAgPC9zdHlsZT4KICA8L2RlZnM+CiAgPHBhdGggZD0iTTI3LDIyVjE3YTIuMDAyMywyLjAwMjMsMCwwLDAtMi0ySDE3VjEwaDNhMi4wMDIzLDIuMDAyMywwLDAsMCwyLTJWNGEyLjAwMjMsMi4wMDIzLDAsMCwwLTItMkgxMmEyLjAwMjMsMi4wMDIzLDAsMCwwLTIsMlY4YTIuMDAyMywyLjAwMjMsMCwwLDAsMiwyaDN2NUg3YTIuMDAyMywyLjAwMjMsMCwwLDAtMiwydjVIMnY4aDhWMjJIN1YxN2g4djVIMTJ2OGg4VjIySDE3VjE3aDh2NUgyMnY4aDhWMjJaTTEyLDRoOFY4SDEyWk04LDI4SDRWMjRIOFptMTAsMEgxNFYyNGg0Wm0xMCwwSDI0VjI0aDRaIiB0cmFuc2Zvcm09InRyYW5zbGF0ZSgwIDApIi8+CiAgPHJlY3QgaWQ9Il9UcmFuc3BhcmVudF9SZWN0YW5nbGVfIiBkYXRhLW5hbWU9IiZsdDtUcmFuc3BhcmVudCBSZWN0YW5nbGUmZ3Q7IiBjbGFzcz0iY2xzLTEiIHdpZHRoPSIzMiIgaGVpZ2h0PSIzMiIvPgo8L3N2Zz4K;fontFamily=IBM Plex Sans;fontSource=fonts%2FIBMPlexSans-Regular.woff;" vertex="1" parent="kl_BWKaGxSFyJq98Dep9-29">
          <mxGeometry x="10" y="10" width="30" height="30" as="geometry" />
        </mxCell>
        <mxCell id="kl_BWKaGxSFyJq98Dep9-30" value="" style="group" vertex="1" connectable="0" parent="kl_BWKaGxSFyJq98Dep9-32">
          <mxGeometry x="170" y="50" width="130" height="50" as="geometry" />
        </mxCell>
        <mxCell id="hiCZ41Te97qc9-zwpl-o-39" value="" style="rounded=0;whiteSpace=wrap;html=1;fontFamily=IBM Plex Sans;fontSource=fonts%2FIBMPlexSans-Regular.woff;fontSize=14;spacingBottom=-28;spacingTop=0;labelPosition=-100;verticalLabelPosition=top;align=center;verticalAlign=bottom;spacingLeft=9;spacing=0;expand=0;recursiveResize=0;spacingRight=0;container=0;collapsible=0;strokeColor=#1192E8;fillColor=none;" parent="kl_BWKaGxSFyJq98Dep9-30" vertex="1">
          <mxGeometry width="130" height="50" as="geometry">
            <mxRectangle width="670" as="alternateBounds" />
          </mxGeometry>
        </mxCell>
        <mxCell id="hiCZ41Te97qc9-zwpl-o-40" value="Databases" style="text;html=1;strokeColor=none;fillColor=none;align=left;verticalAlign=middle;whiteSpace=wrap;rounded=0;fontFamily=IBM Plex Sans;fontSource=fonts%2FIBMPlexSans-Regular.woff;fontSize=14;" parent="kl_BWKaGxSFyJq98Dep9-30" vertex="1">
          <mxGeometry x="50" y="10" width="70" height="30" as="geometry" />
        </mxCell>
        <mxCell id="hiCZ41Te97qc9-zwpl-o-53" value="" style="shape=image;aspect=fixed;image=data:image/svg+xml,PD94bWwgdmVyc2lvbj0iMS4wIiBlbmNvZGluZz0iVVRGLTgiPz4KPHN2ZyBpZD0iaWNvbiIgeG1sbnM9Imh0dHA6Ly93d3cudzMub3JnLzIwMDAvc3ZnIiB3aWR0aD0iMzIiIGhlaWdodD0iMzIiIHZpZXdCb3g9IjAgMCAzMiAzMiI+CiAgPGRlZnM+CiAgICA8c3R5bGU+CiAgICAgIC5jbHMtMSB7CiAgICAgICAgZmlsbDogbm9uZTsKICAgICAgfQogICAgPC9zdHlsZT4KICA8L2RlZnM+CiAgPHBhdGggZD0iTTE2LDNjLTUuMjk3OSwwLTExLDEuMjUyLTExLDRWMjVjMCwyLjc0OCw1LjcwMjEsNCwxMSw0czExLTEuMjUyLDExLTRWN2MwLTIuNzQ4LTUuNzAyMS00LTExLTRabTAsMmM1Ljc5NzYsMCw4Ljc5NDksMS40MzQxLDguOTk2OCwyLS4yMDE5LC41NjU5LTMuMTk5MiwyLTguOTk2OCwyLTUuODQxMywwLTguODM5NC0xLjQ1NTYtOS0xLjk4MjR2LS4wMDQ5Yy4xNjA2LS41NTcxLDMuMTU4Ny0yLjAxMjcsOS0yLjAxMjdaTTcsOS40Mjc3YzIuMTI3OSwxLjA2NzQsNS42NDI2LDEuNTcyMyw5LDEuNTcyM3M2Ljg3MjEtLjUwNDksOS0xLjU3MjN2My41NTk2Yy0uMTYwNiwuNTU3MS0zLjE1ODcsMi4wMTI3LTksMi4wMTI3LTUuODUwMSwwLTguODQ5MS0xLjQ2LTktMnYtMy41NzIzWm0wLDZjMi4xMjc5LDEuMDY3NCw1LjY0MjYsMS41NzIzLDksMS41NzIzczYuODcyMS0uNTA0OSw5LTEuNTcyM3YzLjU1OTZjLS4xNjA2LC41NTcxLTMuMTU4NywyLjAxMjctOSwyLjAxMjctNS44NTAxLDAtOC44NDkxLTEuNDYtOS0ydi0zLjU3MjNabTksMTEuNTcyM2MtNS44NTAxLDAtOC44NDkxLTEuNDYtOS0ydi0zLjU3MjNjMi4xMjc5LDEuMDY3NCw1LjY0MjYsMS41NzIzLDksMS41NzIzczYuODcyMS0uNTA0OSw5LTEuNTcyM3YzLjU1OTZjLS4xNjA2LC41NTcxLTMuMTU4NywyLjAxMjctOSwyLjAxMjdaIi8+CiAgPHJlY3QgaWQ9Il9UcmFuc3BhcmVudF9SZWN0YW5nbGVfIiBkYXRhLW5hbWU9IiZhbXA7bHQ7VHJhbnNwYXJlbnQgUmVjdGFuZ2xlJmFtcDtndDsiIGNsYXNzPSJjbHMtMSIgd2lkdGg9IjMyIiBoZWlnaHQ9IjMyIi8+Cjwvc3ZnPg==;fontFamily=IBM Plex Sans;fontSource=fonts%2FIBMPlexSans-Regular.woff;" parent="kl_BWKaGxSFyJq98Dep9-30" vertex="1">
          <mxGeometry x="10" y="10" width="30" height="30" as="geometry" />
        </mxCell>
        <mxCell id="kl_BWKaGxSFyJq98Dep9-26" value="" style="group" vertex="1" connectable="0" parent="kl_BWKaGxSFyJq98Dep9-32">
          <mxGeometry x="170" y="120" width="130" height="50" as="geometry" />
        </mxCell>
        <mxCell id="kl_BWKaGxSFyJq98Dep9-21" value="" style="rounded=0;whiteSpace=wrap;html=1;fontFamily=IBM Plex Sans;fontSource=fonts%2FIBMPlexSans-Regular.woff;fontSize=14;spacingBottom=-28;spacingTop=0;labelPosition=-100;verticalLabelPosition=top;align=center;verticalAlign=bottom;spacingLeft=9;spacing=0;expand=0;recursiveResize=0;spacingRight=0;container=0;collapsible=0;strokeColor=#1192E8;fillColor=none;" vertex="1" parent="kl_BWKaGxSFyJq98Dep9-26">
          <mxGeometry width="130" height="50" as="geometry">
            <mxRectangle width="670" as="alternateBounds" />
          </mxGeometry>
        </mxCell>
        <mxCell id="kl_BWKaGxSFyJq98Dep9-22" value="Compute" style="text;html=1;strokeColor=none;fillColor=none;align=left;verticalAlign=middle;whiteSpace=wrap;rounded=0;fontFamily=IBM Plex Sans;fontSource=fonts%2FIBMPlexSans-Regular.woff;fontSize=14;" vertex="1" parent="kl_BWKaGxSFyJq98Dep9-26">
          <mxGeometry x="50" y="10" width="70" height="30" as="geometry" />
        </mxCell>
        <mxCell id="kl_BWKaGxSFyJq98Dep9-25" value="" style="shape=image;aspect=fixed;image=data:image/svg+xml,PD94bWwgdmVyc2lvbj0iMS4wIiBlbmNvZGluZz0iaXNvLTg4NTktMSI/Pgo8IS0tIEdlbmVyYXRvcjogQWRvYmUgSWxsdXN0cmF0b3IgMjQuMS4yLCBTVkcgRXhwb3J0IFBsdWctSW4gLiBTVkcgVmVyc2lvbjogNi4wMCBCdWlsZCAwKSAgLS0+CjxzdmcgdmVyc2lvbj0iMS4xIiBpZD0iTGF5ZXJfMSIgeG1sbnM9Imh0dHA6Ly93d3cudzMub3JnLzIwMDAvc3ZnIiB4bWxuczp4bGluaz0iaHR0cDovL3d3dy53My5vcmcvMTk5OS94bGluayIgeD0iMHB4IiB5PSIwcHgiCgkgdmlld0JveD0iMCAwIDMyIDMyIiBzdHlsZT0iZW5hYmxlLWJhY2tncm91bmQ6bmV3IDAgMCAzMiAzMjsiIHhtbDpzcGFjZT0icHJlc2VydmUiPgo8cGF0aCBpZD0ic2VydmVyc18xXyIgZD0iTTIzLDMxLjM2SDljLTAuMTk5LDAtMC4zNi0wLjE2MS0wLjM2LTAuMzZ2LTMuNjRIMWMtMC4xOTksMC0wLjM2LTAuMTYxLTAuMzYtMC4zNlY1CgljMC0wLjE5OSwwLjE2MS0wLjM2LDAuMzYtMC4zNmg3LjY0VjFjMC0wLjE5OSwwLjE2MS0wLjM2LDAuMzYtMC4zNmgxNGMwLjE5OSwwLDAuMzYsMC4xNjEsMC4zNiwwLjM2djMuNjRIMzEKCWMwLjE5OSwwLDAuMzYsMC4xNjEsMC4zNiwwLjM2djIyYzAsMC4xOTktMC4xNjEsMC4zNi0wLjM2LDAuMzZoLTcuNjRWMzFDMjMuMzYsMzEuMTk5LDIzLjE5OSwzMS4zNiwyMywzMS4zNnogTTkuMzYsMzAuNjRoMTMuMjgKCVYxLjM2SDkuMzZWMzAuNjR6IE0yMy4zNiwyNi42NGg3LjI3OVY1LjM2SDIzLjM2djIuMjhIMjd2MC43MmgtMy42NHYyLjI4SDI3djAuNzJoLTMuNjR2Mi4yOEgyN3YwLjcyaC0zLjY0VjI2LjY0eiBNMS4zNiwyNi42NAoJaDcuMjhWMTQuMzZINXYtMC43MmgzLjY0di0yLjI4SDV2LTAuNzJoMy42NFY4LjM2SDVWNy42NGgzLjY0VjUuMzZIMS4zNlYyNi42NHogTTIwLDEwLjM2aC04VjkuNjRoOFYxMC4zNnogTTIwLDcuMzZoLThWNi42NGg4CglWNy4zNnogTTIwLDQuMzZoLThWMy42NGg4VjQuMzZ6Ii8+CjxyZWN0IGlkPSJfVHJhbnNwYXJlbnRfUmVjdGFuZ2xlIiBzdHlsZT0iZmlsbDpub25lOyIgd2lkdGg9IjMyIiBoZWlnaHQ9IjMyIi8+Cjwvc3ZnPgo=;fontFamily=IBM Plex Sans;fontSource=fonts%2FIBMPlexSans-Regular.woff;" vertex="1" parent="kl_BWKaGxSFyJq98Dep9-26">
          <mxGeometry x="10" y="10" width="30" height="30" as="geometry" />
        </mxCell>
        <mxCell id="kl_BWKaGxSFyJq98Dep9-51" value="" style="rounded=0;whiteSpace=wrap;html=1;fontFamily=IBM Plex Sans;fontSource=fonts%2FIBMPlexSans-Regular.woff;fontSize=14;spacingBottom=-28;spacingTop=0;labelPosition=-100;verticalLabelPosition=top;align=center;verticalAlign=bottom;spacingLeft=9;spacing=0;expand=0;recursiveResize=0;spacingRight=0;container=1;collapsible=0;strokeColor=#1192E8;fillColor=none;" vertex="1" parent="1">
          <mxGeometry y="760" width="210" height="190" as="geometry">
            <mxRectangle width="670" as="alternateBounds" />
          </mxGeometry>
        </mxCell>
        <mxCell id="kl_BWKaGxSFyJq98Dep9-52" value="" style="rounded=0;whiteSpace=wrap;html=1;strokeColor=none;fillColor=#1192E8;fontFamily=IBM Plex Sans;fontSource=fonts%2FIBMPlexSans-Regular.woff;" vertex="1" parent="kl_BWKaGxSFyJq98Dep9-51">
          <mxGeometry width="7" height="37" as="geometry" />
        </mxCell>
        <mxCell id="kl_BWKaGxSFyJq98Dep9-53" value="" style="shape=image;aspect=fixed;image=data:image/svg+xml,PD94bWwgdmVyc2lvbj0iMS4wIiBlbmNvZGluZz0iVVRGLTgiPz4KPHN2ZyB3aWR0aD0iMzNweCIgaGVpZ2h0PSIyNnB4IiB2aWV3Qm94PSIwIDAgMzMgMjYiIHZlcnNpb249IjEuMSIgeG1sbnM9Imh0dHA6Ly93d3cudzMub3JnLzIwMDAvc3ZnIiB4bWxuczp4bGluaz0iaHR0cDovL3d3dy53My5vcmcvMTk5OS94bGluayI+CiAgICA8IS0tIEdlbmVyYXRvcjogU2tldGNoIDUzICg3MjUyMCkgLSBodHRwczovL3NrZXRjaGFwcC5jb20gLS0+CiAgICA8dGl0bGU+Q2xvdWQgU2VydmljZXMgQmxhY2s8L3RpdGxlPgogICAgPGRlc2M+Q3JlYXRlZCB3aXRoIFNrZXRjaC48L2Rlc2M+CiAgICA8ZyBpZD0iUGFnZS0xIiBzdHJva2U9Im5vbmUiIHN0cm9rZS13aWR0aD0iMSIgZmlsbD0ibm9uZSIgZmlsbC1ydWxlPSJldmVub2RkIj4KICAgICAgICA8ZyBpZD0iQ2xvdWQtU2VydmljZXMtQmxhY2siIHRyYW5zZm9ybT0idHJhbnNsYXRlKDAuMDYyNTAwLCAtMS4wMDAwMDApIiBmaWxsPSIjMDAwMDAwIj4KICAgICAgICAgICAgPGcgaWQ9Ikdyb3VwLTMiIHRyYW5zZm9ybT0idHJhbnNsYXRlKDAuMDAwMDAwLCAwLjAwMjAwMCkiPgogICAgICAgICAgICAgICAgPHBhdGggZD0iTTI1LjgyMzEsOS4xMjQgQzI0Ljc4NzEsMy43IDE5LjU1MTEsMC4xNDIgMTQuMTI2MSwxLjE3NyBDMTAuMDk4MSwxLjk0NiA2Ljk0ODEsNS4wOTYgNi4xNzkxLDkuMTI0IEMwLjA5MjEsMTAuMjExIC0yLjk1NzksMTguMzYzIDMuOTY0MSwyMy42MzIgQzQuMjg1MSwyMy44NzcgNC42ODkxLDI0IDUuMDkzMSwyNCBMOC4wMDExLDI0IEw4LjAwMTEsMjIgTDUuNDQ4MSwyMiBDNS4xMDQxLDIyIDQuNzYyMSwyMS44NzcgNC41MTExLDIxLjY0MiBDLTAuMzUzOSwxNy4wODYgMi41ODYxLDExLjMzIDcuMTI0MSwxMS4wMiBMNy45NjExLDEwLjk2MyBMOC4zNTYxLDcuMjk4IEM4LjQwNzEsNi44MzIgOC42MTMxLDYuMzg2IDguOTU3MSw2LjA2NyBDMTUuNjAxMSwtMC4wOTQgMjMuMjc2MSwzLjkzNyAyMy45NTIxLDEwLjEzIEwyNC4wNDIxLDEwLjk2MyBMMjYuOTI2MSwxMS4xNiBDMjcuMjY5MSwxMS4xODQgMjcuNjAxMSwxMS4zMyAyNy44MzUxLDExLjU4MiBDMzIuMzc5MSwxNi40NiAyOS4wNTAxLDIyLjAwMyAyNC41MDExLDIyIEwyNC4wMDExLDIyIEwyNC4wMDExLDI0IEwyNy4yMTUxLDI0IEMyNy42NjExLDI0IDI4LjEwMzEsMjMuODQ4IDI4LjQzNzEsMjMuNTUyIEMzNC45MTQxLDE3LjgxNiAzMS42NjgxLDEwLjE2OCAyNS44MjMxLDkuMTI0IiBpZD0iRmlsbC0xIj48L3BhdGg+CiAgICAgICAgICAgIDwvZz4KICAgICAgICAgICAgPHBhdGggZD0iTTE1LjU3NCwyMi44MjU3IEMxMy45MTcsMjIuODI1NyAxMi41NzQsMjEuNDgyNyAxMi41NzQsMTkuODI1NyBDMTIuNTc0LDE4LjE2ODcgMTMuOTE3LDE2LjgyNTcgMTUuNTc0LDE2LjgyNTcgQzE3LjIzMSwxNi44MjU3IDE4LjU3NCwxOC4xNjg3IDE4LjU3NCwxOS44MjU3IEMxOC41NzIsMjEuNDgxNyAxNy4yMywyMi44MjM3IDE1LjU3NCwyMi44MjU3IEwxNS41NzQsMjIuODI1NyBaIE0yMy4wMDEsMjEuMDAxNyBMMjMuMDAxLDE5LjAwMTcgTDIwLjksMTkuMDAxNyBDMjAuNzcxLDE4LjM3NTcgMjAuNTIzLDE3Ljc4MDcgMjAuMTY4LDE3LjI0ODcgTDIxLjY1OCwxNS43NTk3IEwyMC4yNDQsMTQuMzQ1NyBMMTguNzU0LDE1LjgzNDcgQzE4LjIyMiwxNS40ODA3IDE3LjYyNywxNS4yMzE3IDE3LjAwMSwxNS4xMDI3IEwxNy4wMDEsMTMuMDAxNyBMMTUuMDAxLDEzLjAwMTcgTDE1LjAwMSwxNS4xMDI3IEMxNC4zNzUsMTUuMjMxNyAxMy43OCwxNS40ODA3IDEzLjI0OCwxNS44MzQ3IEwxMS43NTgsMTQuMzQ0NyBMMTAuMzQ1LDE1Ljc1ODcgTDExLjgzNCwxNy4yNDg3IEMxMS40OCwxNy43ODA3IDExLjIzMSwxOC4zNzU3IDExLjEwMiwxOS4wMDE3IEw5LjAwMSwxOS4wMDE3IEw5LjAwMSwyMS4wMDE3IEwxMS4xMDIsMjEuMDAxNyBDMTEuMjMxLDIxLjYyNzcgMTEuNDgsMjIuMjIyNyAxMS44MzQsMjIuNzU0NyBMMTAuMzQ0LDI0LjI0NDcgTDExLjc1OCwyNS42NTg3IEwxMy4yNDgsMjQuMTY4NyBDMTMuNzgsMjQuNTIzNyAxNC4zNzUsMjQuNzcxNyAxNS4wMDEsMjQuOTAwNyBMMTUuMDAxLDI3LjAwMTcgTDE3LjAwMSwyNy4wMDE3IEwxNy4wMDEsMjQuOTAwNyBDMTcuNjI3LDI0Ljc3MTcgMTguMjIyLDI0LjUyMzcgMTguNzU0LDI0LjE2ODcgTDIwLjI0NCwyNS42NTg3IEwyMS42NTgsMjQuMjQ0NyBMMjAuMTY4LDIyLjc1NDcgQzIwLjUyMywyMi4yMjI3IDIwLjc3MSwyMS42Mjc3IDIwLjksMjEuMDAxNyBMMjMuMDAxLDIxLjAwMTcgWiIgaWQ9IkZpbGwtNCI+PC9wYXRoPgogICAgICAgIDwvZz4KICAgIDwvZz4KPC9zdmc+;fontFamily=IBM Plex Sans;fontSource=fonts%2FIBMPlexSans-Regular.woff;" vertex="1" parent="kl_BWKaGxSFyJq98Dep9-51">
          <mxGeometry x="20" y="6.65" width="25" height="19.71" as="geometry" />
        </mxCell>
        <mxCell id="kl_BWKaGxSFyJq98Dep9-55" value="IBM Cloud" style="text;html=1;strokeColor=none;fillColor=none;align=left;verticalAlign=middle;whiteSpace=wrap;rounded=0;fontFamily=IBM Plex Sans;fontSource=fonts%2FIBMPlexSans-Regular.woff;fontSize=14;" vertex="1" parent="kl_BWKaGxSFyJq98Dep9-51">
          <mxGeometry x="59.5" y="8.5" width="163" height="20" as="geometry" />
        </mxCell>
        <mxCell id="kl_BWKaGxSFyJq98Dep9-65" value="" style="group" vertex="1" connectable="0" parent="kl_BWKaGxSFyJq98Dep9-51">
          <mxGeometry x="20" y="50" width="170" height="50" as="geometry" />
        </mxCell>
        <mxCell id="kl_BWKaGxSFyJq98Dep9-66" value="" style="rounded=0;whiteSpace=wrap;html=1;fontFamily=IBM Plex Sans;fontSource=fonts%2FIBMPlexSans-Regular.woff;fontSize=14;spacingBottom=-28;spacingTop=0;labelPosition=-100;verticalLabelPosition=top;align=center;verticalAlign=bottom;spacingLeft=9;spacing=0;expand=0;recursiveResize=0;spacingRight=0;container=0;collapsible=0;strokeColor=#1192E8;fillColor=none;" vertex="1" parent="kl_BWKaGxSFyJq98Dep9-65">
          <mxGeometry width="170" height="50" as="geometry">
            <mxRectangle width="670" as="alternateBounds" />
          </mxGeometry>
        </mxCell>
        <mxCell id="kl_BWKaGxSFyJq98Dep9-67" value="Activity Tracker Event Routing" style="text;html=1;strokeColor=none;fillColor=none;align=left;verticalAlign=middle;whiteSpace=wrap;rounded=0;fontFamily=IBM Plex Sans;fontSource=fonts%2FIBMPlexSans-Regular.woff;fontSize=14;" vertex="1" parent="kl_BWKaGxSFyJq98Dep9-65">
          <mxGeometry x="50" y="10" width="100" height="30" as="geometry" />
        </mxCell>
        <mxCell id="kl_BWKaGxSFyJq98Dep9-69" value="" style="shape=image;aspect=fixed;image=data:image/svg+xml,PHN2ZyBpZD0iaWNvbiIgeG1sbnM9Imh0dHA6Ly93d3cudzMub3JnLzIwMDAvc3ZnIiB3aWR0aD0iMzIiIGhlaWdodD0iMzIiIHZpZXdCb3g9IjAgMCAzMiAzMiI+CiAgPGRlZnM+CiAgICA8c3R5bGU+CiAgICAgIC5jbHMtMSB7CiAgICAgICAgZmlsbDogbm9uZTsKICAgICAgfQogICAgPC9zdHlsZT4KICA8L2RlZnM+CiAgPHBvbHlnb24gcG9pbnRzPSIyMSA3IDE2IDIgMTEgNyAxMi40MDkgOC40MTkgMTUgNS44NDcgMTUgMTMgMTcgMTMgMTcgNS43OTQgMTkuNTkxIDguNDE5IDIxIDciLz4KICA8cG9seWdvbiBwb2ludHM9IjIxIDI1IDE2IDMwIDExIDI1IDEyLjQwOSAyMy41ODEgMTUgMjYuMTUzIDE1IDE5IDE3IDE5IDE3IDI2LjIwNiAxOS41OTEgMjMuNTgxIDIxIDI1Ii8+CiAgPHBvbHlnb24gcG9pbnRzPSIyNCAxMSAxOSAxNiAyNCAyMSAyNS40MTkgMTkuNTkxIDIyLjg0NyAxNyAzMCAxNyAzMCAxNSAyMi43OTQgMTUgMjUuNDE5IDEyLjQwOSAyNCAxMSIvPgogIDxwb2x5Z29uIHBvaW50cz0iOCAxMSAxMyAxNiA4IDIxIDYuNTgxIDE5LjU5MSA5LjE1MyAxNyAyIDE3IDIgMTUgOS4yMDYgMTUgNi41ODEgMTIuNDA5IDggMTEiLz4KICA8cmVjdCBpZD0iX1RyYW5zcGFyZW50X1JlY3RhbmdsZV8iIGRhdGEtbmFtZT0iJmx0O1RyYW5zcGFyZW50IFJlY3RhbmdsZSZndDsiIGNsYXNzPSJjbHMtMSIgd2lkdGg9IjMyIiBoZWlnaHQ9IjMyIi8+Cjwvc3ZnPgo=;fontFamily=IBM Plex Sans;fontSource=fonts%2FIBMPlexSans-Regular.woff;" vertex="1" parent="kl_BWKaGxSFyJq98Dep9-65">
          <mxGeometry x="10" y="10" width="30" height="30" as="geometry" />
        </mxCell>
        <mxCell id="kl_BWKaGxSFyJq98Dep9-78" value="" style="group" vertex="1" connectable="0" parent="kl_BWKaGxSFyJq98Dep9-51">
          <mxGeometry x="20" y="120" width="170" height="50" as="geometry" />
        </mxCell>
        <mxCell id="kl_BWKaGxSFyJq98Dep9-79" value="" style="rounded=0;whiteSpace=wrap;html=1;fontFamily=IBM Plex Sans;fontSource=fonts%2FIBMPlexSans-Regular.woff;fontSize=14;spacingBottom=-28;spacingTop=0;labelPosition=-100;verticalLabelPosition=top;align=center;verticalAlign=bottom;spacingLeft=9;spacing=0;expand=0;recursiveResize=0;spacingRight=0;container=0;collapsible=0;strokeColor=#1192E8;fillColor=none;" vertex="1" parent="kl_BWKaGxSFyJq98Dep9-78">
          <mxGeometry width="170" height="50" as="geometry">
            <mxRectangle width="670" as="alternateBounds" />
          </mxGeometry>
        </mxCell>
        <mxCell id="kl_BWKaGxSFyJq98Dep9-80" value="IBM Cloud Logs Routing" style="text;html=1;strokeColor=none;fillColor=none;align=left;verticalAlign=middle;whiteSpace=wrap;rounded=0;fontFamily=IBM Plex Sans;fontSource=fonts%2FIBMPlexSans-Regular.woff;fontSize=14;" vertex="1" parent="kl_BWKaGxSFyJq98Dep9-78">
          <mxGeometry x="50" y="10" width="100" height="30" as="geometry" />
        </mxCell>
        <mxCell id="kl_BWKaGxSFyJq98Dep9-81" value="" style="shape=image;aspect=fixed;image=data:image/svg+xml,PHN2ZyBpZD0iaWNvbiIgeG1sbnM9Imh0dHA6Ly93d3cudzMub3JnLzIwMDAvc3ZnIiB3aWR0aD0iMzIiIGhlaWdodD0iMzIiIHZpZXdCb3g9IjAgMCAzMiAzMiI+CiAgPGRlZnM+CiAgICA8c3R5bGU+CiAgICAgIC5jbHMtMSB7CiAgICAgICAgZmlsbDogbm9uZTsKICAgICAgfQogICAgPC9zdHlsZT4KICA8L2RlZnM+CiAgPHBvbHlnb24gcG9pbnRzPSIyMSA3IDE2IDIgMTEgNyAxMi40MDkgOC40MTkgMTUgNS44NDcgMTUgMTMgMTcgMTMgMTcgNS43OTQgMTkuNTkxIDguNDE5IDIxIDciLz4KICA8cG9seWdvbiBwb2ludHM9IjIxIDI1IDE2IDMwIDExIDI1IDEyLjQwOSAyMy41ODEgMTUgMjYuMTUzIDE1IDE5IDE3IDE5IDE3IDI2LjIwNiAxOS41OTEgMjMuNTgxIDIxIDI1Ii8+CiAgPHBvbHlnb24gcG9pbnRzPSIyNCAxMSAxOSAxNiAyNCAyMSAyNS40MTkgMTkuNTkxIDIyLjg0NyAxNyAzMCAxNyAzMCAxNSAyMi43OTQgMTUgMjUuNDE5IDEyLjQwOSAyNCAxMSIvPgogIDxwb2x5Z29uIHBvaW50cz0iOCAxMSAxMyAxNiA4IDIxIDYuNTgxIDE5LjU5MSA5LjE1MyAxNyAyIDE3IDIgMTUgOS4yMDYgMTUgNi41ODEgMTIuNDA5IDggMTEiLz4KICA8cmVjdCBpZD0iX1RyYW5zcGFyZW50X1JlY3RhbmdsZV8iIGRhdGEtbmFtZT0iJmx0O1RyYW5zcGFyZW50IFJlY3RhbmdsZSZndDsiIGNsYXNzPSJjbHMtMSIgd2lkdGg9IjMyIiBoZWlnaHQ9IjMyIi8+Cjwvc3ZnPgo=;fontFamily=IBM Plex Sans;fontSource=fonts%2FIBMPlexSans-Regular.woff;" vertex="1" parent="kl_BWKaGxSFyJq98Dep9-78">
          <mxGeometry x="10" y="10" width="30" height="30" as="geometry" />
        </mxCell>
        <mxCell id="kl_BWKaGxSFyJq98Dep9-86" value="" style="rounded=0;whiteSpace=wrap;html=1;fontFamily=IBM Plex Sans;fontSource=fonts%2FIBMPlexSans-Regular.woff;fontSize=14;spacingBottom=-28;spacingTop=0;labelPosition=-100;verticalLabelPosition=top;align=center;verticalAlign=bottom;spacingLeft=9;spacing=0;expand=0;recursiveResize=0;spacingRight=0;container=1;collapsible=0;strokeColor=#1192E8;fillColor=none;" vertex="1" parent="1">
          <mxGeometry x="-470" y="970" width="320" height="120" as="geometry">
            <mxRectangle width="670" as="alternateBounds" />
          </mxGeometry>
        </mxCell>
        <mxCell id="kl_BWKaGxSFyJq98Dep9-87" value="" style="rounded=0;whiteSpace=wrap;html=1;strokeColor=none;fillColor=#1192E8;fontFamily=IBM Plex Sans;fontSource=fonts%2FIBMPlexSans-Regular.woff;" vertex="1" parent="kl_BWKaGxSFyJq98Dep9-86">
          <mxGeometry width="7" height="37" as="geometry" />
        </mxCell>
        <mxCell id="kl_BWKaGxSFyJq98Dep9-88" value="Kubernetes / OpenShift / Server" style="text;html=1;strokeColor=none;fillColor=none;align=left;verticalAlign=middle;whiteSpace=wrap;rounded=0;fontFamily=IBM Plex Sans;fontSource=fonts%2FIBMPlexSans-Regular.woff;fontSize=14;" vertex="1" parent="kl_BWKaGxSFyJq98Dep9-86">
          <mxGeometry x="51" y="8" width="209" height="20" as="geometry" />
        </mxCell>
        <mxCell id="kl_BWKaGxSFyJq98Dep9-89" value="" style="shape=image;aspect=fixed;image=data:image/svg+xml,PD94bWwgdmVyc2lvbj0iMS4wIiBlbmNvZGluZz0iaXNvLTg4NTktMSI/Pgo8IS0tIEdlbmVyYXRvcjogQWRvYmUgSWxsdXN0cmF0b3IgMjQuMS4yLCBTVkcgRXhwb3J0IFBsdWctSW4gLiBTVkcgVmVyc2lvbjogNi4wMCBCdWlsZCAwKSAgLS0+CjxzdmcgdmVyc2lvbj0iMS4xIiBpZD0iTGF5ZXJfMSIgeG1sbnM9Imh0dHA6Ly93d3cudzMub3JnLzIwMDAvc3ZnIiB4bWxuczp4bGluaz0iaHR0cDovL3d3dy53My5vcmcvMTk5OS94bGluayIgeD0iMHB4IiB5PSIwcHgiCgkgdmlld0JveD0iMCAwIDMyIDMyIiBzdHlsZT0iZW5hYmxlLWJhY2tncm91bmQ6bmV3IDAgMCAzMiAzMjsiIHhtbDpzcGFjZT0icHJlc2VydmUiPgo8cGF0aCBpZD0ic2VydmVyc18xXyIgZD0iTTIzLDMxLjM2SDljLTAuMTk5LDAtMC4zNi0wLjE2MS0wLjM2LTAuMzZ2LTMuNjRIMWMtMC4xOTksMC0wLjM2LTAuMTYxLTAuMzYtMC4zNlY1CgljMC0wLjE5OSwwLjE2MS0wLjM2LDAuMzYtMC4zNmg3LjY0VjFjMC0wLjE5OSwwLjE2MS0wLjM2LDAuMzYtMC4zNmgxNGMwLjE5OSwwLDAuMzYsMC4xNjEsMC4zNiwwLjM2djMuNjRIMzEKCWMwLjE5OSwwLDAuMzYsMC4xNjEsMC4zNiwwLjM2djIyYzAsMC4xOTktMC4xNjEsMC4zNi0wLjM2LDAuMzZoLTcuNjRWMzFDMjMuMzYsMzEuMTk5LDIzLjE5OSwzMS4zNiwyMywzMS4zNnogTTkuMzYsMzAuNjRoMTMuMjgKCVYxLjM2SDkuMzZWMzAuNjR6IE0yMy4zNiwyNi42NGg3LjI3OVY1LjM2SDIzLjM2djIuMjhIMjd2MC43MmgtMy42NHYyLjI4SDI3djAuNzJoLTMuNjR2Mi4yOEgyN3YwLjcyaC0zLjY0VjI2LjY0eiBNMS4zNiwyNi42NAoJaDcuMjhWMTQuMzZINXYtMC43MmgzLjY0di0yLjI4SDV2LTAuNzJoMy42NFY4LjM2SDVWNy42NGgzLjY0VjUuMzZIMS4zNlYyNi42NHogTTIwLDEwLjM2aC04VjkuNjRoOFYxMC4zNnogTTIwLDcuMzZoLThWNi42NGg4CglWNy4zNnogTTIwLDQuMzZoLThWMy42NGg4VjQuMzZ6Ii8+CjxyZWN0IGlkPSJfVHJhbnNwYXJlbnRfUmVjdGFuZ2xlIiBzdHlsZT0iZmlsbDpub25lOyIgd2lkdGg9IjMyIiBoZWlnaHQ9IjMyIi8+Cjwvc3ZnPgo=;fontFamily=IBM Plex Sans;fontSource=fonts%2FIBMPlexSans-Regular.woff;" vertex="1" parent="kl_BWKaGxSFyJq98Dep9-86">
          <mxGeometry x="19" y="5.5" width="25" height="25" as="geometry" />
        </mxCell>
        <mxCell id="kl_BWKaGxSFyJq98Dep9-94" value="" style="group" vertex="1" connectable="0" parent="kl_BWKaGxSFyJq98Dep9-86">
          <mxGeometry x="19" y="50" width="281" height="50" as="geometry" />
        </mxCell>
        <mxCell id="kl_BWKaGxSFyJq98Dep9-83" value="" style="rounded=0;whiteSpace=wrap;html=1;fontFamily=IBM Plex Sans;fontSource=fonts%2FIBMPlexSans-Regular.woff;fontSize=14;spacingBottom=-28;spacingTop=0;labelPosition=-100;verticalLabelPosition=top;align=center;verticalAlign=bottom;spacingLeft=9;spacing=0;expand=0;recursiveResize=0;spacingRight=0;container=0;collapsible=0;strokeColor=#1192E8;fillColor=none;" vertex="1" parent="kl_BWKaGxSFyJq98Dep9-94">
          <mxGeometry width="281" height="50" as="geometry">
            <mxRectangle width="670" as="alternateBounds" />
          </mxGeometry>
        </mxCell>
        <mxCell id="kl_BWKaGxSFyJq98Dep9-84" value="IBM Cloud Logs Routing Agent" style="text;html=1;strokeColor=none;fillColor=none;align=left;verticalAlign=middle;whiteSpace=wrap;rounded=0;fontFamily=IBM Plex Sans;fontSource=fonts%2FIBMPlexSans-Regular.woff;fontSize=14;" vertex="1" parent="kl_BWKaGxSFyJq98Dep9-94">
          <mxGeometry x="50" y="10" width="220" height="30" as="geometry" />
        </mxCell>
        <mxCell id="kl_BWKaGxSFyJq98Dep9-85" value="" style="shape=image;aspect=fixed;image=data:image/svg+xml,PHN2ZyBpZD0iaWNvbiIgeG1sbnM9Imh0dHA6Ly93d3cudzMub3JnLzIwMDAvc3ZnIiB3aWR0aD0iMzIiIGhlaWdodD0iMzIiIHZpZXdCb3g9IjAgMCAzMiAzMiI+CiAgPGRlZnM+CiAgICA8c3R5bGU+CiAgICAgIC5jbHMtMSB7CiAgICAgICAgZmlsbDogbm9uZTsKICAgICAgfQogICAgPC9zdHlsZT4KICA8L2RlZnM+CiAgPHBvbHlnb24gcG9pbnRzPSIyMSA3IDE2IDIgMTEgNyAxMi40MDkgOC40MTkgMTUgNS44NDcgMTUgMTMgMTcgMTMgMTcgNS43OTQgMTkuNTkxIDguNDE5IDIxIDciLz4KICA8cG9seWdvbiBwb2ludHM9IjIxIDI1IDE2IDMwIDExIDI1IDEyLjQwOSAyMy41ODEgMTUgMjYuMTUzIDE1IDE5IDE3IDE5IDE3IDI2LjIwNiAxOS41OTEgMjMuNTgxIDIxIDI1Ii8+CiAgPHBvbHlnb24gcG9pbnRzPSIyNCAxMSAxOSAxNiAyNCAyMSAyNS40MTkgMTkuNTkxIDIyLjg0NyAxNyAzMCAxNyAzMCAxNSAyMi43OTQgMTUgMjUuNDE5IDEyLjQwOSAyNCAxMSIvPgogIDxwb2x5Z29uIHBvaW50cz0iOCAxMSAxMyAxNiA4IDIxIDYuNTgxIDE5LjU5MSA5LjE1MyAxNyAyIDE3IDIgMTUgOS4yMDYgMTUgNi41ODEgMTIuNDA5IDggMTEiLz4KICA8cmVjdCBpZD0iX1RyYW5zcGFyZW50X1JlY3RhbmdsZV8iIGRhdGEtbmFtZT0iJmx0O1RyYW5zcGFyZW50IFJlY3RhbmdsZSZndDsiIGNsYXNzPSJjbHMtMSIgd2lkdGg9IjMyIiBoZWlnaHQ9IjMyIi8+Cjwvc3ZnPgo=;fontFamily=IBM Plex Sans;fontSource=fonts%2FIBMPlexSans-Regular.woff;" vertex="1" parent="kl_BWKaGxSFyJq98Dep9-94">
          <mxGeometry x="7.27" y="10" width="30" height="30" as="geometry" />
        </mxCell>
        <mxCell id="kl_BWKaGxSFyJq98Dep9-118" value="" style="group" vertex="1" connectable="0" parent="1">
          <mxGeometry x="300" y="810" width="170" height="50" as="geometry" />
        </mxCell>
        <mxCell id="kl_BWKaGxSFyJq98Dep9-119" value="" style="rounded=0;whiteSpace=wrap;html=1;fontFamily=IBM Plex Sans;fontSource=fonts%2FIBMPlexSans-Regular.woff;fontSize=14;spacingBottom=-28;spacingTop=0;labelPosition=-100;verticalLabelPosition=top;align=center;verticalAlign=bottom;spacingLeft=9;spacing=0;expand=0;recursiveResize=0;spacingRight=0;container=0;collapsible=0;strokeColor=#1192E8;fillColor=none;" vertex="1" parent="kl_BWKaGxSFyJq98Dep9-118">
          <mxGeometry width="170" height="50" as="geometry">
            <mxRectangle width="670" as="alternateBounds" />
          </mxGeometry>
        </mxCell>
        <mxCell id="kl_BWKaGxSFyJq98Dep9-120" value="Priority Insights" style="text;html=1;strokeColor=none;fillColor=none;align=left;verticalAlign=middle;whiteSpace=wrap;rounded=0;fontFamily=IBM Plex Sans;fontSource=fonts%2FIBMPlexSans-Regular.woff;fontSize=14;" vertex="1" parent="kl_BWKaGxSFyJq98Dep9-118">
          <mxGeometry x="50" y="10" width="110" height="30" as="geometry" />
        </mxCell>
        <mxCell id="kl_BWKaGxSFyJq98Dep9-122" value="" style="shape=image;aspect=fixed;image=data:image/svg+xml,PD94bWwgdmVyc2lvbj0iMS4wIiBlbmNvZGluZz0iaXNvLTg4NTktMSI/Pgo8IS0tIEdlbmVyYXRvcjogQWRvYmUgSWxsdXN0cmF0b3IgMjQuMS4yLCBTVkcgRXhwb3J0IFBsdWctSW4gLiBTVkcgVmVyc2lvbjogNi4wMCBCdWlsZCAwKSAgLS0+CjxzdmcgdmVyc2lvbj0iMS4xIiBpZD0iTGF5ZXJfMSIgeG1sbnM9Imh0dHA6Ly93d3cudzMub3JnLzIwMDAvc3ZnIiB4bWxuczp4bGluaz0iaHR0cDovL3d3dy53My5vcmcvMTk5OS94bGluayIgeD0iMHB4IiB5PSIwcHgiCgkgdmlld0JveD0iMCAwIDMyIDMyIiBzdHlsZT0iZW5hYmxlLWJhY2tncm91bmQ6bmV3IDAgMCAzMiAzMjsiIHhtbDpzcGFjZT0icHJlc2VydmUiPgo8cGF0aCBpZD0icHJvY2Vzc18xXyIgZD0iTTE3LjM4LDIzLjM2aC0yLjc2Yy0wLjE5OSwwLTAuMzYtMC4xNjEtMC4zNi0wLjM2di0xLjU2N2wtMC44NjktMC4zNjNsLTEuMTExLDEuMTExCgljLTAuMDY3LDAuMDY3LTAuMTU5LDAuMTA1LTAuMjU0LDAuMTA1bDAsMGMtMC4wOTYsMC0wLjE4Ny0wLjAzOC0wLjI1NC0wLjEwNUw5LjgyLDIwLjIyOWMtMC4xNDEtMC4xNDEtMC4xNDEtMC4zNjksMC0wLjUxCglsMS4xMDgtMS4xMDdsLTAuMzU3LTAuODcxSDljLTAuMTk5LDAtMC4zNi0wLjE2MS0wLjM2LTAuMzZ2LTIuNzZjMC0wLjE5OSwwLjE2MS0wLjM2LDAuMzYtMC4zNmgxLjU2N2wwLjM2My0wLjg2OUw5LjgyLDEyLjI4CgljLTAuMTQtMC4xNDEtMC4xNC0wLjM2OCwwLTAuNTA5bDEuOTUxLTEuOTUyYzAuMTM1LTAuMTM2LDAuMzc0LTAuMTM2LDAuNTA5LDBsMS4xMDgsMS4xMDlsMC44NzItMC4zNTdWOQoJYzAtMC4xOTksMC4xNjEtMC4zNiwwLjM2LTAuMzZoMi43NmMwLjE5OSwwLDAuMzYsMC4xNjEsMC4zNiwwLjM2djEuNTY3bDAuODY4LDAuMzYzbDEuMTEtMS4xMTFjMC4xMzUtMC4xMzUsMC4zNzUtMC4xMzYsMC41MSwwCglsMS45NTIsMS45NTJjMC4wNjcsMC4wNjcsMC4xMDUsMC4xNTksMC4xMDUsMC4yNTRjMCwwLjA5Ni0wLjAzOCwwLjE4Ny0wLjEwNSwwLjI1NGwtMS4xMDksMS4xMDhsMC4zNTcsMC44NzJIMjMKCWMwLjE5OSwwLDAuMzYsMC4xNjEsMC4zNiwwLjM2djIuNzZjMCwwLjE5OS0wLjE2MSwwLjM2LTAuMzYsMC4zNmgtMS41NjdsLTAuMzYzLDAuODY4bDEuMTExLDEuMTEKCWMwLjA2NywwLjA2NywwLjEwNSwwLjE1OSwwLjEwNSwwLjI1NXMtMC4wMzgsMC4xODgtMC4xMDUsMC4yNTVsLTEuOTUyLDEuOTUyYy0wLjA2NywwLjA2Ny0wLjE1OSwwLjEwNS0wLjI1NSwwLjEwNWwwLDAKCWMtMC4wOTYsMC0wLjE4OC0wLjAzOC0wLjI1NS0wLjEwNWwtMS4xMDctMS4xMDlsLTAuODcxLDAuMzU3VjIzQzE3Ljc0LDIzLjE5OSwxNy41NzksMjMuMzYsMTcuMzgsMjMuMzZ6IE0xNC45OCwyMi42NGgyLjA0di0xLjQ1MgoJYzAtMC4xNDYsMC4wODktMC4yNzcsMC4yMjQtMC4zMzNsMS4zMTYtMC41NGMwLjEzNC0wLjA1NywwLjI4OC0wLjAyNCwwLjM5MiwwLjA3OGwxLjAyMiwxLjAyNGwxLjQ0My0xLjQ0M2wtMS4wMjgtMS4wMjYKCWMtMC4xMDMtMC4xMDQtMC4xMzQtMC4yNTktMC4wNzctMC4zOTRsMC41NS0xLjMxMmMwLjA1Ni0wLjEzNCwwLjE4Ny0wLjIyMiwwLjMzMi0wLjIyMmgxLjQ0NnYtMi4wNGgtMS40NTIKCWMtMC4xNDYsMC0wLjI3Ny0wLjA4OC0wLjMzMy0wLjIyM2wtMC41NC0xLjMxNmMtMC4wNTUtMC4xMzQtMC4wMjQtMC4yODksMC4wNzgtMC4zOTFsMS4wMjQtMS4wMjNsLTEuNDQzLTEuNDQzbC0xLjAyNiwxLjAyNwoJYy0wLjEwNCwwLjEwMy0wLjI1OSwwLjEzNS0wLjM5NCwwLjA3OGwtMS4zMTItMC41NDljLTAuMTM0LTAuMDU2LTAuMjIyLTAuMTg3LTAuMjIyLTAuMzMyVjkuMzZoLTIuMDR2MS40NTIKCWMwLDAuMTQ2LTAuMDg4LDAuMjc4LTAuMjIzLDAuMzMzbC0xLjMxNiwwLjU0Yy0wLjEzNSwwLjA1NC0wLjI4OCwwLjAyNC0wLjM5MS0wLjA3OWwtMS4wMjMtMS4wMjNsLTEuNDQyLDEuNDQzbDEuMDI3LDEuMDI4CgljMC4xMDMsMC4xMDMsMC4xMzQsMC4yNTksMC4wNzcsMC4zOTRMMTEuMTQsMTQuNzZjLTAuMDU2LDAuMTM0LTAuMTg3LDAuMjIxLTAuMzMyLDAuMjIxSDkuMzZ2Mi4wNGgxLjQ1MgoJYzAuMTQ2LDAsMC4yNzgsMC4wODksMC4zMzMsMC4yMjRsMC41NCwxLjMxNmMwLjA1NSwwLjEzNSwwLjAyNCwwLjI4OS0wLjA3OSwwLjM5MmwtMS4wMjIsMS4wMjJsMS40NDIsMS40NDNsMS4wMjgtMS4wMjgKCWMwLjEwNC0wLjEwNCwwLjI1OS0wLjEzMywwLjM5NC0wLjA3N2wxLjMxMiwwLjU1YzAuMTM0LDAuMDU2LDAuMjIxLDAuMTg3LDAuMjIxLDAuMzMyTDE0Ljk4LDIyLjY0TDE0Ljk4LDIyLjY0eiBNMTYsMTkuMzYKCWMtMS44NTMsMC0zLjM2LTEuNTA4LTMuMzYtMy4zNnMxLjUwNy0zLjM2LDMuMzYtMy4zNnMzLjM2LDEuNTA3LDMuMzYsMy4zNlMxNy44NTMsMTkuMzYsMTYsMTkuMzZ6IE0xNiwxMy4zNgoJYy0xLjQ1NiwwLTIuNjQsMS4xODUtMi42NCwyLjY0YzAsMS40NTYsMS4xODUsMi42NCwyLjY0LDIuNjRjMS40NTYsMCwyLjY0LTEuMTg0LDIuNjQtMi42NFMxNy40NTYsMTMuMzYsMTYsMTMuMzZ6IE0xNiwzMS4zNgoJYy00LjUyOSwwLTguNzE2LTEuOTMzLTExLjY0LTUuMzM4VjMwSDMuNjR2LTUuMzZIOXYwLjcyMUg0Ljc0M0M3LjUzNiwyOC43MjUsMTEuNTk4LDMwLjY0LDE2LDMwLjY0CgljOC4wNzIsMCwxNC42NC02LjU2NywxNC42NC0xNC42NGgwLjcyMUMzMS4zNiwyNC40NywyNC40NywzMS4zNiwxNiwzMS4zNnogTTEuMzYsMTZIMC42NEMwLjY0LDcuNTMsNy41MywwLjY0LDE2LDAuNjQKCWM0LjUyOSwwLDguNzE2LDEuOTMzLDExLjY0LDUuMzM3VjJoMC43MjF2NS4zNkgyM1Y2LjY0aDQuMjU3QzI0LjQ2NCwzLjI3NSwyMC40MDEsMS4zNiwxNiwxLjM2QzcuOTI3LDEuMzYsMS4zNiw3LjkyNywxLjM2LDE2eiIvPgo8cmVjdCBpZD0iX1RyYW5zcGFyZW50X1JlY3RhbmdsZSIgc3R5bGU9ImZpbGw6bm9uZTsiIHdpZHRoPSIzMiIgaGVpZ2h0PSIzMiIvPgo8L3N2Zz4K;container=0;fontFamily=IBM Plex Sans;fontSource=fonts%2FIBMPlexSans-Regular.woff;" vertex="1" parent="kl_BWKaGxSFyJq98Dep9-118">
          <mxGeometry x="10" y="10" width="30" height="30" as="geometry" />
        </mxCell>
        <mxCell id="kl_BWKaGxSFyJq98Dep9-123" value="" style="group" vertex="1" connectable="0" parent="1">
          <mxGeometry x="300" y="880" width="170" height="50" as="geometry" />
        </mxCell>
        <mxCell id="kl_BWKaGxSFyJq98Dep9-124" value="" style="rounded=0;whiteSpace=wrap;html=1;fontFamily=IBM Plex Sans;fontSource=fonts%2FIBMPlexSans-Regular.woff;fontSize=14;spacingBottom=-28;spacingTop=0;labelPosition=-100;verticalLabelPosition=top;align=center;verticalAlign=bottom;spacingLeft=9;spacing=0;expand=0;recursiveResize=0;spacingRight=0;container=0;collapsible=0;strokeColor=#1192E8;fillColor=none;" vertex="1" parent="kl_BWKaGxSFyJq98Dep9-123">
          <mxGeometry width="170" height="50" as="geometry">
            <mxRectangle width="670" as="alternateBounds" />
          </mxGeometry>
        </mxCell>
        <mxCell id="kl_BWKaGxSFyJq98Dep9-125" value="Analyze and alert" style="text;html=1;strokeColor=none;fillColor=none;align=left;verticalAlign=middle;whiteSpace=wrap;rounded=0;fontFamily=IBM Plex Sans;fontSource=fonts%2FIBMPlexSans-Regular.woff;fontSize=14;" vertex="1" parent="kl_BWKaGxSFyJq98Dep9-123">
          <mxGeometry x="50" y="10" width="110" height="30" as="geometry" />
        </mxCell>
        <mxCell id="kl_BWKaGxSFyJq98Dep9-126" value="" style="shape=image;aspect=fixed;image=data:image/svg+xml,PD94bWwgdmVyc2lvbj0iMS4wIiBlbmNvZGluZz0iaXNvLTg4NTktMSI/Pgo8IS0tIEdlbmVyYXRvcjogQWRvYmUgSWxsdXN0cmF0b3IgMjQuMS4yLCBTVkcgRXhwb3J0IFBsdWctSW4gLiBTVkcgVmVyc2lvbjogNi4wMCBCdWlsZCAwKSAgLS0+CjxzdmcgdmVyc2lvbj0iMS4xIiBpZD0iTGF5ZXJfMSIgeG1sbnM9Imh0dHA6Ly93d3cudzMub3JnLzIwMDAvc3ZnIiB4bWxuczp4bGluaz0iaHR0cDovL3d3dy53My5vcmcvMTk5OS94bGluayIgeD0iMHB4IiB5PSIwcHgiCgkgdmlld0JveD0iMCAwIDMyIDMyIiBzdHlsZT0iZW5hYmxlLWJhY2tncm91bmQ6bmV3IDAgMCAzMiAzMjsiIHhtbDpzcGFjZT0icHJlc2VydmUiPgo8cGF0aCBpZD0icHJvY2Vzc18xXyIgZD0iTTE3LjM4LDIzLjM2aC0yLjc2Yy0wLjE5OSwwLTAuMzYtMC4xNjEtMC4zNi0wLjM2di0xLjU2N2wtMC44NjktMC4zNjNsLTEuMTExLDEuMTExCgljLTAuMDY3LDAuMDY3LTAuMTU5LDAuMTA1LTAuMjU0LDAuMTA1bDAsMGMtMC4wOTYsMC0wLjE4Ny0wLjAzOC0wLjI1NC0wLjEwNUw5LjgyLDIwLjIyOWMtMC4xNDEtMC4xNDEtMC4xNDEtMC4zNjksMC0wLjUxCglsMS4xMDgtMS4xMDdsLTAuMzU3LTAuODcxSDljLTAuMTk5LDAtMC4zNi0wLjE2MS0wLjM2LTAuMzZ2LTIuNzZjMC0wLjE5OSwwLjE2MS0wLjM2LDAuMzYtMC4zNmgxLjU2N2wwLjM2My0wLjg2OUw5LjgyLDEyLjI4CgljLTAuMTQtMC4xNDEtMC4xNC0wLjM2OCwwLTAuNTA5bDEuOTUxLTEuOTUyYzAuMTM1LTAuMTM2LDAuMzc0LTAuMTM2LDAuNTA5LDBsMS4xMDgsMS4xMDlsMC44NzItMC4zNTdWOQoJYzAtMC4xOTksMC4xNjEtMC4zNiwwLjM2LTAuMzZoMi43NmMwLjE5OSwwLDAuMzYsMC4xNjEsMC4zNiwwLjM2djEuNTY3bDAuODY4LDAuMzYzbDEuMTEtMS4xMTFjMC4xMzUtMC4xMzUsMC4zNzUtMC4xMzYsMC41MSwwCglsMS45NTIsMS45NTJjMC4wNjcsMC4wNjcsMC4xMDUsMC4xNTksMC4xMDUsMC4yNTRjMCwwLjA5Ni0wLjAzOCwwLjE4Ny0wLjEwNSwwLjI1NGwtMS4xMDksMS4xMDhsMC4zNTcsMC44NzJIMjMKCWMwLjE5OSwwLDAuMzYsMC4xNjEsMC4zNiwwLjM2djIuNzZjMCwwLjE5OS0wLjE2MSwwLjM2LTAuMzYsMC4zNmgtMS41NjdsLTAuMzYzLDAuODY4bDEuMTExLDEuMTEKCWMwLjA2NywwLjA2NywwLjEwNSwwLjE1OSwwLjEwNSwwLjI1NXMtMC4wMzgsMC4xODgtMC4xMDUsMC4yNTVsLTEuOTUyLDEuOTUyYy0wLjA2NywwLjA2Ny0wLjE1OSwwLjEwNS0wLjI1NSwwLjEwNWwwLDAKCWMtMC4wOTYsMC0wLjE4OC0wLjAzOC0wLjI1NS0wLjEwNWwtMS4xMDctMS4xMDlsLTAuODcxLDAuMzU3VjIzQzE3Ljc0LDIzLjE5OSwxNy41NzksMjMuMzYsMTcuMzgsMjMuMzZ6IE0xNC45OCwyMi42NGgyLjA0di0xLjQ1MgoJYzAtMC4xNDYsMC4wODktMC4yNzcsMC4yMjQtMC4zMzNsMS4zMTYtMC41NGMwLjEzNC0wLjA1NywwLjI4OC0wLjAyNCwwLjM5MiwwLjA3OGwxLjAyMiwxLjAyNGwxLjQ0My0xLjQ0M2wtMS4wMjgtMS4wMjYKCWMtMC4xMDMtMC4xMDQtMC4xMzQtMC4yNTktMC4wNzctMC4zOTRsMC41NS0xLjMxMmMwLjA1Ni0wLjEzNCwwLjE4Ny0wLjIyMiwwLjMzMi0wLjIyMmgxLjQ0NnYtMi4wNGgtMS40NTIKCWMtMC4xNDYsMC0wLjI3Ny0wLjA4OC0wLjMzMy0wLjIyM2wtMC41NC0xLjMxNmMtMC4wNTUtMC4xMzQtMC4wMjQtMC4yODksMC4wNzgtMC4zOTFsMS4wMjQtMS4wMjNsLTEuNDQzLTEuNDQzbC0xLjAyNiwxLjAyNwoJYy0wLjEwNCwwLjEwMy0wLjI1OSwwLjEzNS0wLjM5NCwwLjA3OGwtMS4zMTItMC41NDljLTAuMTM0LTAuMDU2LTAuMjIyLTAuMTg3LTAuMjIyLTAuMzMyVjkuMzZoLTIuMDR2MS40NTIKCWMwLDAuMTQ2LTAuMDg4LDAuMjc4LTAuMjIzLDAuMzMzbC0xLjMxNiwwLjU0Yy0wLjEzNSwwLjA1NC0wLjI4OCwwLjAyNC0wLjM5MS0wLjA3OWwtMS4wMjMtMS4wMjNsLTEuNDQyLDEuNDQzbDEuMDI3LDEuMDI4CgljMC4xMDMsMC4xMDMsMC4xMzQsMC4yNTksMC4wNzcsMC4zOTRMMTEuMTQsMTQuNzZjLTAuMDU2LDAuMTM0LTAuMTg3LDAuMjIxLTAuMzMyLDAuMjIxSDkuMzZ2Mi4wNGgxLjQ1MgoJYzAuMTQ2LDAsMC4yNzgsMC4wODksMC4zMzMsMC4yMjRsMC41NCwxLjMxNmMwLjA1NSwwLjEzNSwwLjAyNCwwLjI4OS0wLjA3OSwwLjM5MmwtMS4wMjIsMS4wMjJsMS40NDIsMS40NDNsMS4wMjgtMS4wMjgKCWMwLjEwNC0wLjEwNCwwLjI1OS0wLjEzMywwLjM5NC0wLjA3N2wxLjMxMiwwLjU1YzAuMTM0LDAuMDU2LDAuMjIxLDAuMTg3LDAuMjIxLDAuMzMyTDE0Ljk4LDIyLjY0TDE0Ljk4LDIyLjY0eiBNMTYsMTkuMzYKCWMtMS44NTMsMC0zLjM2LTEuNTA4LTMuMzYtMy4zNnMxLjUwNy0zLjM2LDMuMzYtMy4zNnMzLjM2LDEuNTA3LDMuMzYsMy4zNlMxNy44NTMsMTkuMzYsMTYsMTkuMzZ6IE0xNiwxMy4zNgoJYy0xLjQ1NiwwLTIuNjQsMS4xODUtMi42NCwyLjY0YzAsMS40NTYsMS4xODUsMi42NCwyLjY0LDIuNjRjMS40NTYsMCwyLjY0LTEuMTg0LDIuNjQtMi42NFMxNy40NTYsMTMuMzYsMTYsMTMuMzZ6IE0xNiwzMS4zNgoJYy00LjUyOSwwLTguNzE2LTEuOTMzLTExLjY0LTUuMzM4VjMwSDMuNjR2LTUuMzZIOXYwLjcyMUg0Ljc0M0M3LjUzNiwyOC43MjUsMTEuNTk4LDMwLjY0LDE2LDMwLjY0CgljOC4wNzIsMCwxNC42NC02LjU2NywxNC42NC0xNC42NGgwLjcyMUMzMS4zNiwyNC40NywyNC40NywzMS4zNiwxNiwzMS4zNnogTTEuMzYsMTZIMC42NEMwLjY0LDcuNTMsNy41MywwLjY0LDE2LDAuNjQKCWM0LjUyOSwwLDguNzE2LDEuOTMzLDExLjY0LDUuMzM3VjJoMC43MjF2NS4zNkgyM1Y2LjY0aDQuMjU3QzI0LjQ2NCwzLjI3NSwyMC40MDEsMS4zNiwxNiwxLjM2QzcuOTI3LDEuMzYsMS4zNiw3LjkyNywxLjM2LDE2eiIvPgo8cmVjdCBpZD0iX1RyYW5zcGFyZW50X1JlY3RhbmdsZSIgc3R5bGU9ImZpbGw6bm9uZTsiIHdpZHRoPSIzMiIgaGVpZ2h0PSIzMiIvPgo8L3N2Zz4K;container=0;fontFamily=IBM Plex Sans;fontSource=fonts%2FIBMPlexSans-Regular.woff;" vertex="1" parent="kl_BWKaGxSFyJq98Dep9-123">
          <mxGeometry x="10" y="10" width="30" height="30" as="geometry" />
        </mxCell>
        <mxCell id="kl_BWKaGxSFyJq98Dep9-127" value="" style="group" vertex="1" connectable="0" parent="1">
          <mxGeometry x="300" y="950" width="170" height="50" as="geometry" />
        </mxCell>
        <mxCell id="kl_BWKaGxSFyJq98Dep9-128" value="" style="rounded=0;whiteSpace=wrap;html=1;fontFamily=IBM Plex Sans;fontSource=fonts%2FIBMPlexSans-Regular.woff;fontSize=14;spacingBottom=-28;spacingTop=0;labelPosition=-100;verticalLabelPosition=top;align=center;verticalAlign=bottom;spacingLeft=9;spacing=0;expand=0;recursiveResize=0;spacingRight=0;container=0;collapsible=0;strokeColor=#1192E8;fillColor=none;" vertex="1" parent="kl_BWKaGxSFyJq98Dep9-127">
          <mxGeometry width="170" height="50" as="geometry">
            <mxRectangle width="670" as="alternateBounds" />
          </mxGeometry>
        </mxCell>
        <mxCell id="kl_BWKaGxSFyJq98Dep9-129" value="Store and Search" style="text;html=1;strokeColor=none;fillColor=none;align=left;verticalAlign=middle;whiteSpace=wrap;rounded=0;fontFamily=IBM Plex Sans;fontSource=fonts%2FIBMPlexSans-Regular.woff;fontSize=14;" vertex="1" parent="kl_BWKaGxSFyJq98Dep9-127">
          <mxGeometry x="50" y="10" width="110" height="30" as="geometry" />
        </mxCell>
        <mxCell id="kl_BWKaGxSFyJq98Dep9-130" value="" style="shape=image;aspect=fixed;image=data:image/svg+xml,PD94bWwgdmVyc2lvbj0iMS4wIiBlbmNvZGluZz0iaXNvLTg4NTktMSI/Pgo8IS0tIEdlbmVyYXRvcjogQWRvYmUgSWxsdXN0cmF0b3IgMjQuMS4yLCBTVkcgRXhwb3J0IFBsdWctSW4gLiBTVkcgVmVyc2lvbjogNi4wMCBCdWlsZCAwKSAgLS0+CjxzdmcgdmVyc2lvbj0iMS4xIiBpZD0iTGF5ZXJfMSIgeG1sbnM9Imh0dHA6Ly93d3cudzMub3JnLzIwMDAvc3ZnIiB4bWxuczp4bGluaz0iaHR0cDovL3d3dy53My5vcmcvMTk5OS94bGluayIgeD0iMHB4IiB5PSIwcHgiCgkgdmlld0JveD0iMCAwIDMyIDMyIiBzdHlsZT0iZW5hYmxlLWJhY2tncm91bmQ6bmV3IDAgMCAzMiAzMjsiIHhtbDpzcGFjZT0icHJlc2VydmUiPgo8cGF0aCBpZD0icHJvY2Vzc18xXyIgZD0iTTE3LjM4LDIzLjM2aC0yLjc2Yy0wLjE5OSwwLTAuMzYtMC4xNjEtMC4zNi0wLjM2di0xLjU2N2wtMC44NjktMC4zNjNsLTEuMTExLDEuMTExCgljLTAuMDY3LDAuMDY3LTAuMTU5LDAuMTA1LTAuMjU0LDAuMTA1bDAsMGMtMC4wOTYsMC0wLjE4Ny0wLjAzOC0wLjI1NC0wLjEwNUw5LjgyLDIwLjIyOWMtMC4xNDEtMC4xNDEtMC4xNDEtMC4zNjksMC0wLjUxCglsMS4xMDgtMS4xMDdsLTAuMzU3LTAuODcxSDljLTAuMTk5LDAtMC4zNi0wLjE2MS0wLjM2LTAuMzZ2LTIuNzZjMC0wLjE5OSwwLjE2MS0wLjM2LDAuMzYtMC4zNmgxLjU2N2wwLjM2My0wLjg2OUw5LjgyLDEyLjI4CgljLTAuMTQtMC4xNDEtMC4xNC0wLjM2OCwwLTAuNTA5bDEuOTUxLTEuOTUyYzAuMTM1LTAuMTM2LDAuMzc0LTAuMTM2LDAuNTA5LDBsMS4xMDgsMS4xMDlsMC44NzItMC4zNTdWOQoJYzAtMC4xOTksMC4xNjEtMC4zNiwwLjM2LTAuMzZoMi43NmMwLjE5OSwwLDAuMzYsMC4xNjEsMC4zNiwwLjM2djEuNTY3bDAuODY4LDAuMzYzbDEuMTEtMS4xMTFjMC4xMzUtMC4xMzUsMC4zNzUtMC4xMzYsMC41MSwwCglsMS45NTIsMS45NTJjMC4wNjcsMC4wNjcsMC4xMDUsMC4xNTksMC4xMDUsMC4yNTRjMCwwLjA5Ni0wLjAzOCwwLjE4Ny0wLjEwNSwwLjI1NGwtMS4xMDksMS4xMDhsMC4zNTcsMC44NzJIMjMKCWMwLjE5OSwwLDAuMzYsMC4xNjEsMC4zNiwwLjM2djIuNzZjMCwwLjE5OS0wLjE2MSwwLjM2LTAuMzYsMC4zNmgtMS41NjdsLTAuMzYzLDAuODY4bDEuMTExLDEuMTEKCWMwLjA2NywwLjA2NywwLjEwNSwwLjE1OSwwLjEwNSwwLjI1NXMtMC4wMzgsMC4xODgtMC4xMDUsMC4yNTVsLTEuOTUyLDEuOTUyYy0wLjA2NywwLjA2Ny0wLjE1OSwwLjEwNS0wLjI1NSwwLjEwNWwwLDAKCWMtMC4wOTYsMC0wLjE4OC0wLjAzOC0wLjI1NS0wLjEwNWwtMS4xMDctMS4xMDlsLTAuODcxLDAuMzU3VjIzQzE3Ljc0LDIzLjE5OSwxNy41NzksMjMuMzYsMTcuMzgsMjMuMzZ6IE0xNC45OCwyMi42NGgyLjA0di0xLjQ1MgoJYzAtMC4xNDYsMC4wODktMC4yNzcsMC4yMjQtMC4zMzNsMS4zMTYtMC41NGMwLjEzNC0wLjA1NywwLjI4OC0wLjAyNCwwLjM5MiwwLjA3OGwxLjAyMiwxLjAyNGwxLjQ0My0xLjQ0M2wtMS4wMjgtMS4wMjYKCWMtMC4xMDMtMC4xMDQtMC4xMzQtMC4yNTktMC4wNzctMC4zOTRsMC41NS0xLjMxMmMwLjA1Ni0wLjEzNCwwLjE4Ny0wLjIyMiwwLjMzMi0wLjIyMmgxLjQ0NnYtMi4wNGgtMS40NTIKCWMtMC4xNDYsMC0wLjI3Ny0wLjA4OC0wLjMzMy0wLjIyM2wtMC41NC0xLjMxNmMtMC4wNTUtMC4xMzQtMC4wMjQtMC4yODksMC4wNzgtMC4zOTFsMS4wMjQtMS4wMjNsLTEuNDQzLTEuNDQzbC0xLjAyNiwxLjAyNwoJYy0wLjEwNCwwLjEwMy0wLjI1OSwwLjEzNS0wLjM5NCwwLjA3OGwtMS4zMTItMC41NDljLTAuMTM0LTAuMDU2LTAuMjIyLTAuMTg3LTAuMjIyLTAuMzMyVjkuMzZoLTIuMDR2MS40NTIKCWMwLDAuMTQ2LTAuMDg4LDAuMjc4LTAuMjIzLDAuMzMzbC0xLjMxNiwwLjU0Yy0wLjEzNSwwLjA1NC0wLjI4OCwwLjAyNC0wLjM5MS0wLjA3OWwtMS4wMjMtMS4wMjNsLTEuNDQyLDEuNDQzbDEuMDI3LDEuMDI4CgljMC4xMDMsMC4xMDMsMC4xMzQsMC4yNTksMC4wNzcsMC4zOTRMMTEuMTQsMTQuNzZjLTAuMDU2LDAuMTM0LTAuMTg3LDAuMjIxLTAuMzMyLDAuMjIxSDkuMzZ2Mi4wNGgxLjQ1MgoJYzAuMTQ2LDAsMC4yNzgsMC4wODksMC4zMzMsMC4yMjRsMC41NCwxLjMxNmMwLjA1NSwwLjEzNSwwLjAyNCwwLjI4OS0wLjA3OSwwLjM5MmwtMS4wMjIsMS4wMjJsMS40NDIsMS40NDNsMS4wMjgtMS4wMjgKCWMwLjEwNC0wLjEwNCwwLjI1OS0wLjEzMywwLjM5NC0wLjA3N2wxLjMxMiwwLjU1YzAuMTM0LDAuMDU2LDAuMjIxLDAuMTg3LDAuMjIxLDAuMzMyTDE0Ljk4LDIyLjY0TDE0Ljk4LDIyLjY0eiBNMTYsMTkuMzYKCWMtMS44NTMsMC0zLjM2LTEuNTA4LTMuMzYtMy4zNnMxLjUwNy0zLjM2LDMuMzYtMy4zNnMzLjM2LDEuNTA3LDMuMzYsMy4zNlMxNy44NTMsMTkuMzYsMTYsMTkuMzZ6IE0xNiwxMy4zNgoJYy0xLjQ1NiwwLTIuNjQsMS4xODUtMi42NCwyLjY0YzAsMS40NTYsMS4xODUsMi42NCwyLjY0LDIuNjRjMS40NTYsMCwyLjY0LTEuMTg0LDIuNjQtMi42NFMxNy40NTYsMTMuMzYsMTYsMTMuMzZ6IE0xNiwzMS4zNgoJYy00LjUyOSwwLTguNzE2LTEuOTMzLTExLjY0LTUuMzM4VjMwSDMuNjR2LTUuMzZIOXYwLjcyMUg0Ljc0M0M3LjUzNiwyOC43MjUsMTEuNTk4LDMwLjY0LDE2LDMwLjY0CgljOC4wNzIsMCwxNC42NC02LjU2NywxNC42NC0xNC42NGgwLjcyMUMzMS4zNiwyNC40NywyNC40NywzMS4zNiwxNiwzMS4zNnogTTEuMzYsMTZIMC42NEMwLjY0LDcuNTMsNy41MywwLjY0LDE2LDAuNjQKCWM0LjUyOSwwLDguNzE2LDEuOTMzLDExLjY0LDUuMzM3VjJoMC43MjF2NS4zNkgyM1Y2LjY0aDQuMjU3QzI0LjQ2NCwzLjI3NSwyMC40MDEsMS4zNiwxNiwxLjM2QzcuOTI3LDEuMzYsMS4zNiw3LjkyNywxLjM2LDE2eiIvPgo8cmVjdCBpZD0iX1RyYW5zcGFyZW50X1JlY3RhbmdsZSIgc3R5bGU9ImZpbGw6bm9uZTsiIHdpZHRoPSIzMiIgaGVpZ2h0PSIzMiIvPgo8L3N2Zz4K;container=0;fontFamily=IBM Plex Sans;fontSource=fonts%2FIBMPlexSans-Regular.woff;" vertex="1" parent="kl_BWKaGxSFyJq98Dep9-127">
          <mxGeometry x="10" y="10" width="30" height="30" as="geometry" />
        </mxCell>
        <mxCell id="kl_BWKaGxSFyJq98Dep9-101" value="" style="rounded=0;whiteSpace=wrap;html=1;strokeColor=none;fillColor=#1192E8;fontFamily=IBM Plex Sans;fontSource=fonts%2FIBMPlexSans-Regular.woff;" vertex="1" parent="1">
          <mxGeometry x="280" y="760" width="7" height="36.8" as="geometry" />
        </mxCell>
        <mxCell id="kl_BWKaGxSFyJq98Dep9-102" value="" style="group" vertex="1" connectable="0" parent="1">
          <mxGeometry x="303" y="771.04" width="194" height="23" as="geometry" />
        </mxCell>
        <mxCell id="kl_BWKaGxSFyJq98Dep9-103" value="IBM Cloud Logs" style="text;html=1;strokeColor=none;fillColor=none;align=left;verticalAlign=middle;whiteSpace=wrap;rounded=0;fontFamily=IBM Plex Sans;fontSource=fonts%2FIBMPlexSans-Regular.woff;fontSize=14;" vertex="1" parent="kl_BWKaGxSFyJq98Dep9-102">
          <mxGeometry x="31" y="2.3" width="163" height="18.4" as="geometry" />
        </mxCell>
        <mxCell id="kl_BWKaGxSFyJq98Dep9-104" value="" style="shape=image;aspect=fixed;image=data:image/svg+xml,PHN2ZyB3aWR0aD0iMzIiIGhlaWdodD0iMzIiIHZpZXdCb3g9IjAgMCAzMiAzMiIgZmlsbD0ibm9uZSIgeG1sbnM9Imh0dHA6Ly93d3cudzMub3JnLzIwMDAvc3ZnIj4KPGcgY2xpcC1wYXRoPSJ1cmwoI2NsaXAwXzNfMjYzKSI+CjxtYXNrIGlkPSJtYXNrMF8zXzI2MyIgc3R5bGU9Im1hc2stdHlwZTphbHBoYSIgbWFza1VuaXRzPSJ1c2VyU3BhY2VPblVzZSIgeD0iMiIgeT0iNCIgd2lkdGg9IjI4IiBoZWlnaHQ9IjI2Ij4KPHBhdGggZD0iTTI4IDE2VjIySDRWNkg3VjRINEMzLjQ2OTU3IDQgMi45NjA4NiA0LjIxMDcxIDIuNTg1NzkgNC41ODU3OUMyLjIxMDcxIDQuOTYwODYgMiA1LjQ2OTU3IDIgNlYyMkMyIDIyLjUzMDQgMi4yMTA3MSAyMy4wMzkxIDIuNTg1NzkgMjMuNDE0MkMyLjk2MDg2IDIzLjc4OTMgMy40Njk1NyAyNCA0IDI0SDEyVjI4SDhWMzBIMjRWMjhIMjBWMjRIMjhDMjguNTMwNCAyNCAyOS4wMzkxIDIzLjc4OTMgMjkuNDE0MiAyMy40MTQyQzI5Ljc4OTMgMjMuMDM5MSAzMCAyMi41MzA0IDMwIDIyVjE2SDI4Wk0xOCAyOEgxNFYyNEgxOFYyOFoiIGZpbGw9IndoaXRlIi8+CjxwYXRoIGZpbGwtcnVsZT0iZXZlbm9kZCIgY2xpcC1ydWxlPSJldmVub2RkIiBkPSJNNiA1VjRMMTcgNFY2TDYgNkw2IDVaIiBmaWxsPSJ1cmwoI3BhaW50MF9saW5lYXJfM18yNjMpIi8+CjwvbWFzaz4KPGcgbWFzaz0idXJsKCNtYXNrMF8zXzI2MykiPgo8cmVjdCB3aWR0aD0iMzIiIGhlaWdodD0iMzIiIGZpbGw9IndoaXRlIi8+CjxwYXRoIGQ9Ik0zMiAwSDBWMzJIMzJWMFoiIGZpbGw9InVybCgjcGFpbnQxX2xpbmVhcl8zXzI2MykiLz4KPC9nPgo8cGF0aCBmaWxsLXJ1bGU9ImV2ZW5vZGQiIGNsaXAtcnVsZT0iZXZlbm9kZCIgZD0iTTI0IDJIMTZWNEgyNFYyWk0yNCA2SDE2VjhIMjRWNlpNMjUuNzIgMTEuMThDMjUuMTg5OCAxMC45MjAyIDI0Ljc0OCAxMC41MDk3IDI0LjQ1IDEwSDIyLjI2QzIyLjQ2NTYgMTAuNjUxMSAyMi44MDIzIDExLjI1MzEgMjMuMjQ5NSAxMS43NjkxQzIzLjY5NjcgMTIuMjg1MSAyNC4yNDQ4IDEyLjcwNCAyNC44NiAxM0wyNyAxNEwyOS4xNCAxM0MyOS45OTczIDEyLjU5NCAzMC43MjE1IDExLjk1MjUgMzEuMjI3OSAxMS4xNTA0QzMxLjczNDMgMTAuMzQ4MiAzMi4wMDIxIDkuNDE4NjEgMzIgOC40N1YySDI3VjRIMzBWOC40N0MyOS45OTk0IDkuMDM4MjQgMjkuODM3NCA5LjU5NDYxIDI5LjUzMjkgMTAuMDc0NEMyOS4yMjg0IDEwLjU1NDEgMjguNzkzOSAxMC45Mzc2IDI4LjI4IDExLjE4TDI3IDExLjc5TDI1LjcyIDExLjE4WiIgZmlsbD0iIzAwMUQ2QyIvPgo8L2c+CjxkZWZzPgo8bGluZWFyR3JhZGllbnQgaWQ9InBhaW50MF9saW5lYXJfM18yNjMiIHgxPSI2Ljc4NTcxIiB5MT0iNSIgeDI9IjE3IiB5Mj0iNSIgZ3JhZGllbnRVbml0cz0idXNlclNwYWNlT25Vc2UiPgo8c3RvcCBvZmZzZXQ9IjAuMDQ2ODc1IiBzdG9wLWNvbG9yPSJ3aGl0ZSIvPgo8c3RvcCBvZmZzZXQ9IjAuODIyOTE3IiBzdG9wLWNvbG9yPSJ3aGl0ZSIgc3RvcC1vcGFjaXR5PSIwIi8+CjwvbGluZWFyR3JhZGllbnQ+CjxsaW5lYXJHcmFkaWVudCBpZD0icGFpbnQxX2xpbmVhcl8zXzI2MyIgeDE9IjAiIHkxPSIzMiIgeDI9IjMyIiB5Mj0iMCIgZ3JhZGllbnRVbml0cz0idXNlclNwYWNlT25Vc2UiPgo8c3RvcCBvZmZzZXQ9IjAuMSIgc3RvcC1jb2xvcj0iI0ZBNEQ1NiIvPgo8c3RvcCBvZmZzZXQ9IjAuOSIgc3RvcC1jb2xvcj0iIzlGMTg1MyIvPgo8L2xpbmVhckdyYWRpZW50Pgo8Y2xpcFBhdGggaWQ9ImNsaXAwXzNfMjYzIj4KPHJlY3Qgd2lkdGg9IjMyIiBoZWlnaHQ9IjMyIiBmaWxsPSJ3aGl0ZSIvPgo8L2NsaXBQYXRoPgo8L2RlZnM+Cjwvc3ZnPgo=;fontFamily=IBM Plex Sans;fontSource=fonts%2FIBMPlexSans-Regular.woff;" vertex="1" parent="kl_BWKaGxSFyJq98Dep9-102">
          <mxGeometry width="23" height="23" as="geometry" />
        </mxCell>
        <mxCell id="kl_BWKaGxSFyJq98Dep9-131" value="&amp;nbsp;Application and Infrastructure Logs&amp;nbsp;" style="edgeStyle=orthogonalEdgeStyle;rounded=0;orthogonalLoop=1;jettySize=auto;html=1;exitX=1;exitY=0.5;exitDx=0;exitDy=0;entryX=-0.014;entryY=0.819;entryDx=0;entryDy=0;entryPerimeter=0;" edge="1" parent="1" source="kl_BWKaGxSFyJq98Dep9-86" target="kl_BWKaGxSFyJq98Dep9-100">
          <mxGeometry relative="1" as="geometry" />
        </mxCell>
        <mxCell id="kl_BWKaGxSFyJq98Dep9-132" style="edgeStyle=orthogonalEdgeStyle;rounded=0;orthogonalLoop=1;jettySize=auto;html=1;exitX=1;exitY=0.5;exitDx=0;exitDy=0;entryX=-0.01;entryY=0.289;entryDx=0;entryDy=0;entryPerimeter=0;" edge="1" parent="1" source="kl_BWKaGxSFyJq98Dep9-51" target="kl_BWKaGxSFyJq98Dep9-100">
          <mxGeometry relative="1" as="geometry" />
        </mxCell>
        <mxCell id="kl_BWKaGxSFyJq98Dep9-133" value="" style="rounded=0;whiteSpace=wrap;html=1;fontFamily=IBM Plex Sans;fontSource=fonts%2FIBMPlexSans-Regular.woff;fontSize=14;spacingBottom=-28;spacingTop=0;labelPosition=-100;verticalLabelPosition=top;align=center;verticalAlign=bottom;spacingLeft=9;spacing=0;expand=0;recursiveResize=0;spacingRight=0;container=1;collapsible=0;strokeColor=#1192E8;fillColor=none;" vertex="1" parent="1">
          <mxGeometry x="600" y="760" width="230" height="260" as="geometry">
            <mxRectangle width="670" as="alternateBounds" />
          </mxGeometry>
        </mxCell>
        <mxCell id="kl_BWKaGxSFyJq98Dep9-134" value="" style="rounded=0;whiteSpace=wrap;html=1;strokeColor=none;fillColor=#1192E8;" vertex="1" parent="kl_BWKaGxSFyJq98Dep9-133">
          <mxGeometry width="7" height="37" as="geometry" />
        </mxCell>
        <mxCell id="kl_BWKaGxSFyJq98Dep9-135" value="IBM Cloud Object Storage" style="text;html=1;strokeColor=none;fillColor=none;align=left;verticalAlign=middle;whiteSpace=wrap;rounded=0;fontFamily=IBM Plex Sans;fontSource=fonts%2FIBMPlexSans-Regular.woff;fontSize=14;" vertex="1" parent="kl_BWKaGxSFyJq98Dep9-133">
          <mxGeometry x="51" y="8" width="169" height="20" as="geometry" />
        </mxCell>
        <mxCell id="kl_BWKaGxSFyJq98Dep9-136" value="" style="shape=image;aspect=fixed;image=data:image/svg+xml,PHN2ZyBpZD0iaWNvbiIgeG1sbnM9Imh0dHA6Ly93d3cudzMub3JnLzIwMDAvc3ZnIiB3aWR0aD0iMzIiIGhlaWdodD0iMzIiIHZpZXdCb3g9IjAgMCAzMiAzMiI+CiAgPGRlZnM+CiAgICA8c3R5bGU+CiAgICAgIC5jbHMtMSB7CiAgICAgICAgZmlsbDogbm9uZTsKICAgICAgfQogICAgPC9zdHlsZT4KICA8L2RlZnM+CiAgPHBhdGggZD0iTTI4LDIwSDI2djJoMnY2SDRWMjJIMTRWMjBINGEyLjAwMjMsMi4wMDIzLDAsMCwwLTIsMnY2YTIuMDAyMywyLjAwMjMsMCwwLDAsMiwySDI4YTIuMDAyMywyLjAwMjMsMCwwLDAsMi0yVjIyQTIuMDAyMywyLjAwMjMsMCwwLDAsMjgsMjBaIi8+CiAgPGNpcmNsZSBjeD0iNyIgY3k9IjI1IiByPSIxIi8+CiAgPHBhdGggZD0iTTMwLDhIMjJ2NkgxNnY4aDhWMTZoNlpNMjIsMjBIMThWMTZoNFptNi02SDI0VjEwaDRaIi8+CiAgPHBhdGggZD0iTTE4LDEwSDEwVjJoOFpNMTIsOGg0VjRIMTJaIi8+CiAgPHJlY3QgaWQ9Il9UcmFuc3BhcmVudF9SZWN0YW5nbGVfIiBkYXRhLW5hbWU9IiZsdDtUcmFuc3BhcmVudCBSZWN0YW5nbGUmZ3Q7IiBjbGFzcz0iY2xzLTEiIHdpZHRoPSIzMiIgaGVpZ2h0PSIzMiIvPgo8L3N2Zz4K;" vertex="1" parent="kl_BWKaGxSFyJq98Dep9-133">
          <mxGeometry x="20" y="6" width="25" height="25" as="geometry" />
        </mxCell>
        <mxCell id="kl_BWKaGxSFyJq98Dep9-154" value="" style="group" vertex="1" connectable="0" parent="kl_BWKaGxSFyJq98Dep9-133">
          <mxGeometry x="20" y="50" width="200" height="50" as="geometry" />
        </mxCell>
        <mxCell id="kl_BWKaGxSFyJq98Dep9-155" value="" style="rounded=0;whiteSpace=wrap;html=1;fontFamily=IBM Plex Sans;fontSource=fonts%2FIBMPlexSans-Regular.woff;fontSize=14;spacingBottom=-28;spacingTop=0;labelPosition=-100;verticalLabelPosition=top;align=center;verticalAlign=bottom;spacingLeft=9;spacing=0;expand=0;recursiveResize=0;spacingRight=0;container=0;collapsible=0;strokeColor=#1192E8;fillColor=none;" vertex="1" parent="kl_BWKaGxSFyJq98Dep9-154">
          <mxGeometry width="190" height="50" as="geometry">
            <mxRectangle width="670" as="alternateBounds" />
          </mxGeometry>
        </mxCell>
        <mxCell id="kl_BWKaGxSFyJq98Dep9-156" value="Logs bucket" style="text;html=1;strokeColor=none;fillColor=none;align=left;verticalAlign=middle;whiteSpace=wrap;rounded=0;fontFamily=IBM Plex Sans;fontSource=fonts%2FIBMPlexSans-Regular.woff;fontSize=14;" vertex="1" parent="kl_BWKaGxSFyJq98Dep9-154">
          <mxGeometry x="50" y="10" width="110" height="30" as="geometry" />
        </mxCell>
        <mxCell id="kl_BWKaGxSFyJq98Dep9-162" value="" style="shape=image;aspect=fixed;image=data:image/svg+xml,PHN2ZyBpZD0iaWNvbiIgeG1sbnM9Imh0dHA6Ly93d3cudzMub3JnLzIwMDAvc3ZnIiB3aWR0aD0iMzIiIGhlaWdodD0iMzIiIHZpZXdCb3g9IjAgMCAzMiAzMiI+CiAgPGRlZnM+CiAgICA8c3R5bGU+CiAgICAgIC5jbHMtMSB7CiAgICAgICAgZmlsbDogbm9uZTsKICAgICAgfQogICAgPC9zdHlsZT4KICA8L2RlZnM+CiAgPHBhdGggZD0iTTIzLDI0YTIuOTgsMi45OCwwLDAsMC0yLjAzNzYuODExNWwtNC4wMDM3LTIuNDAyM2EyLjA0NzgsMi4wNDc4LDAsMCwwLDAtLjgxODRsNC4wMDM3LTIuNDAyM2EzLjI0NjMsMy4yNDYzLDAsMSwwLS45MjExLTEuNzc5M2wtNC4wMDM3LDIuNDAyM2EzLDMsMCwxLDAsMCw0LjM3N2w0LjAwMzcsMi40MDIzQTIuOTcyOSwyLjk3MjksMCwwLDAsMjAsMjdhMywzLDAsMSwwLDMtM1ptMC04YTEsMSwwLDEsMS0xLDFBMS4wMDA4LDEuMDAwOCwwLDAsMSwyMywxNlptLTksN2ExLDEsMCwxLDEsMS0xQTEuMDAwOCwxLjAwMDgsMCwwLDEsMTQsMjNabTksNWExLDEsMCwxLDEsMS0xQTEuMDAwOCwxLjAwMDgsMCwwLDEsMjMsMjhaIi8+CiAgPHBhdGggZD0iTTgsMjhINGEyLjAwMjMsMi4wMDIzLDAsMCwxLTItMlY2QTIuMDAyMywyLjAwMjMsMCwwLDEsNCw0aDcuNTg1N0ExLjk4NjUsMS45ODY1LDAsMCwxLDEzLDQuNTg1OUwxNi40MTQzLDhIMjhhMi4wMDIzLDIuMDAyMywwLDAsMSwyLDJ2OEgyOFYxMEgxNS41ODU3bC00LTRINFYyNkg4WiIvPgogIDxyZWN0IGlkPSJfVHJhbnNwYXJlbnRfUmVjdGFuZ2xlXyIgZGF0YS1uYW1lPSImbHQ7VHJhbnNwYXJlbnQgUmVjdGFuZ2xlJmd0OyIgY2xhc3M9ImNscy0xIiB3aWR0aD0iMzIiIGhlaWdodD0iMzIiLz4KPC9zdmc+Cg==;" vertex="1" parent="kl_BWKaGxSFyJq98Dep9-154">
          <mxGeometry x="10" y="10" width="30" height="30" as="geometry" />
        </mxCell>
        <mxCell id="kl_BWKaGxSFyJq98Dep9-165" value="" style="rounded=0;whiteSpace=wrap;html=1;fontFamily=IBM Plex Sans;fontSource=fonts%2FIBMPlexSans-Regular.woff;fontSize=14;spacingBottom=-28;spacingTop=0;labelPosition=-100;verticalLabelPosition=top;align=center;verticalAlign=bottom;spacingLeft=9;spacing=0;expand=0;recursiveResize=0;spacingRight=0;container=0;collapsible=0;strokeColor=#1192E8;fillColor=none;" vertex="1" parent="kl_BWKaGxSFyJq98Dep9-133">
          <mxGeometry x="20" y="120" width="190" height="50" as="geometry">
            <mxRectangle width="670" as="alternateBounds" />
          </mxGeometry>
        </mxCell>
        <mxCell id="kl_BWKaGxSFyJq98Dep9-166" value="Logs metrics bucket" style="text;html=1;strokeColor=none;fillColor=none;align=left;verticalAlign=middle;whiteSpace=wrap;rounded=0;fontFamily=IBM Plex Sans;fontSource=fonts%2FIBMPlexSans-Regular.woff;fontSize=14;" vertex="1" parent="kl_BWKaGxSFyJq98Dep9-133">
          <mxGeometry x="70" y="130" width="110" height="30" as="geometry" />
        </mxCell>
        <mxCell id="kl_BWKaGxSFyJq98Dep9-167" value="" style="shape=image;aspect=fixed;image=data:image/svg+xml,PHN2ZyBpZD0iaWNvbiIgeG1sbnM9Imh0dHA6Ly93d3cudzMub3JnLzIwMDAvc3ZnIiB3aWR0aD0iMzIiIGhlaWdodD0iMzIiIHZpZXdCb3g9IjAgMCAzMiAzMiI+CiAgPGRlZnM+CiAgICA8c3R5bGU+CiAgICAgIC5jbHMtMSB7CiAgICAgICAgZmlsbDogbm9uZTsKICAgICAgfQogICAgPC9zdHlsZT4KICA8L2RlZnM+CiAgPHBhdGggZD0iTTIzLDI0YTIuOTgsMi45OCwwLDAsMC0yLjAzNzYuODExNWwtNC4wMDM3LTIuNDAyM2EyLjA0NzgsMi4wNDc4LDAsMCwwLDAtLjgxODRsNC4wMDM3LTIuNDAyM2EzLjI0NjMsMy4yNDYzLDAsMSwwLS45MjExLTEuNzc5M2wtNC4wMDM3LDIuNDAyM2EzLDMsMCwxLDAsMCw0LjM3N2w0LjAwMzcsMi40MDIzQTIuOTcyOSwyLjk3MjksMCwwLDAsMjAsMjdhMywzLDAsMSwwLDMtM1ptMC04YTEsMSwwLDEsMS0xLDFBMS4wMDA4LDEuMDAwOCwwLDAsMSwyMywxNlptLTksN2ExLDEsMCwxLDEsMS0xQTEuMDAwOCwxLjAwMDgsMCwwLDEsMTQsMjNabTksNWExLDEsMCwxLDEsMS0xQTEuMDAwOCwxLjAwMDgsMCwwLDEsMjMsMjhaIi8+CiAgPHBhdGggZD0iTTgsMjhINGEyLjAwMjMsMi4wMDIzLDAsMCwxLTItMlY2QTIuMDAyMywyLjAwMjMsMCwwLDEsNCw0aDcuNTg1N0ExLjk4NjUsMS45ODY1LDAsMCwxLDEzLDQuNTg1OUwxNi40MTQzLDhIMjhhMi4wMDIzLDIuMDAyMywwLDAsMSwyLDJ2OEgyOFYxMEgxNS41ODU3bC00LTRINFYyNkg4WiIvPgogIDxyZWN0IGlkPSJfVHJhbnNwYXJlbnRfUmVjdGFuZ2xlXyIgZGF0YS1uYW1lPSImbHQ7VHJhbnNwYXJlbnQgUmVjdGFuZ2xlJmd0OyIgY2xhc3M9ImNscy0xIiB3aWR0aD0iMzIiIGhlaWdodD0iMzIiLz4KPC9zdmc+Cg==;" vertex="1" parent="kl_BWKaGxSFyJq98Dep9-133">
          <mxGeometry x="30" y="130" width="30" height="30" as="geometry" />
        </mxCell>
        <mxCell id="kl_BWKaGxSFyJq98Dep9-153" value="" style="group" vertex="1" connectable="0" parent="1">
          <mxGeometry x="600" y="1040" width="230" height="50" as="geometry" />
        </mxCell>
        <mxCell id="kl_BWKaGxSFyJq98Dep9-150" value="" style="rounded=0;whiteSpace=wrap;html=1;fontFamily=IBM Plex Sans;fontSource=fonts%2FIBMPlexSans-Regular.woff;fontSize=14;spacingBottom=-28;spacingTop=0;labelPosition=-100;verticalLabelPosition=top;align=center;verticalAlign=bottom;spacingLeft=9;spacing=0;expand=0;recursiveResize=0;spacingRight=0;container=0;collapsible=0;strokeColor=#1192E8;fillColor=none;" vertex="1" parent="kl_BWKaGxSFyJq98Dep9-153">
          <mxGeometry width="230" height="50" as="geometry">
            <mxRectangle width="670" as="alternateBounds" />
          </mxGeometry>
        </mxCell>
        <mxCell id="kl_BWKaGxSFyJq98Dep9-151" value="IBM Cloud Event Notifications" style="text;html=1;strokeColor=none;fillColor=none;align=left;verticalAlign=middle;whiteSpace=wrap;rounded=0;fontFamily=IBM Plex Sans;fontSource=fonts%2FIBMPlexSans-Regular.woff;fontSize=14;" vertex="1" parent="kl_BWKaGxSFyJq98Dep9-153">
          <mxGeometry x="50" y="10" width="170" height="30" as="geometry" />
        </mxCell>
        <mxCell id="kl_BWKaGxSFyJq98Dep9-146" value="" style="shape=image;aspect=fixed;image=data:image/svg+xml,PD94bWwgdmVyc2lvbj0iMS4wIiBlbmNvZGluZz0idXRmLTgiPz4KPCEtLSBHZW5lcmF0b3I6IEFkb2JlIElsbHVzdHJhdG9yIDI2LjMuMSwgU1ZHIEV4cG9ydCBQbHVnLUluIC4gU1ZHIFZlcnNpb246IDYuMDAgQnVpbGQgMCkgIC0tPgo8c3ZnIHZlcnNpb249IjEuMSIgaWQ9Imljb24iIHhtbG5zPSJodHRwOi8vd3d3LnczLm9yZy8yMDAwL3N2ZyIgeG1sbnM6eGxpbms9Imh0dHA6Ly93d3cudzMub3JnLzE5OTkveGxpbmsiIHg9IjBweCIgeT0iMHB4IgoJIHdpZHRoPSIzMnB4IiBoZWlnaHQ9IjMycHgiIHZpZXdCb3g9IjAgMCAzMiAzMiIgc3R5bGU9ImVuYWJsZS1iYWNrZ3JvdW5kOm5ldyAwIDAgMzIgMzI7IiB4bWw6c3BhY2U9InByZXNlcnZlIj4KPHN0eWxlIHR5cGU9InRleHQvY3NzIj4KCS5zdDB7ZmlsbDpub25lO30KPC9zdHlsZT4KPHBhdGggZD0iTTI2LDE5Yy0wLjcsMC0xLjQsMC4zLTEuOSwwLjdsLTQuMy0yLjZjMC4xLTAuNCwwLjItMC43LDAuMi0xLjFjMC0wLjQtMC4xLTAuOC0wLjItMS4xbDQuMy0yLjZjMC41LDAuNCwxLjIsMC43LDEuOSwwLjcKCWMxLjcsMCwzLTEuMywzLTNzLTEuMy0zLTMtM3MtMywxLjMtMywzYzAsMC4yLDAsMC40LDAuMSwwLjZsLTQuMywyLjZDMTguMSwxMi40LDE3LjEsMTIsMTYsMTJjLTAuNiwwLTEuMSwwLjEtMS42LDAuNGwtMy44LTQuOAoJQzEwLjgsNy4xLDExLDYuNiwxMSw2YzAtMS43LTEuMy0zLTMtM1M1LDQuMyw1LDZzMS4zLDMsMywzYzAuMywwLDAuNy0wLjEsMS0wLjJsMy44LDQuOGMtMC4zLDAuNC0wLjUsMC45LTAuNywxLjRINy44CgljLTAuNC0xLjItMS41LTItMi44LTJjLTEuNywwLTMsMS4zLTMsM3MxLjMsMywzLDNjMS4zLDAsMi40LTAuOCwyLjgtMmg0LjNjMC4xLDAuNSwwLjQsMSwwLjcsMS40TDksMjMuMkM4LjcsMjMuMSw4LjMsMjMsOCwyMwoJYy0xLjcsMC0zLDEuMy0zLDNzMS4zLDMsMywzczMtMS4zLDMtM2MwLTAuNi0wLjItMS4xLTAuNS0xLjZsMy44LTQuOGMwLjUsMC4yLDEuMSwwLjQsMS42LDAuNGMxLjEsMCwyLjEtMC40LDIuOC0xLjJsNC4zLDIuNgoJYzAsMC4yLTAuMSwwLjQtMC4xLDAuNmMwLDEuNywxLjMsMywzLDNzMy0xLjMsMy0zUzI3LjcsMTksMjYsMTl6IE0yNiw5YzAuNiwwLDEsMC40LDEsMXMtMC40LDEtMSwxcy0xLTAuNC0xLTFTMjUuNCw5LDI2LDl6IE03LDYKCWMwLTAuNiwwLjQtMSwxLTFzMSwwLjQsMSwxUzguNiw3LDgsN1M3LDYuNiw3LDZ6IE01LDE3Yy0wLjYsMC0xLTAuNC0xLTFjMC0wLjYsMC40LTEsMS0xYzAuNiwwLDEsMC40LDEsMUM2LDE2LjYsNS42LDE3LDUsMTd6CgkgTTgsMjdjLTAuNiwwLTEtMC40LTEtMXMwLjQtMSwxLTFzMSwwLjQsMSwxUzguNiwyNyw4LDI3eiBNMTYsMThjLTEuMSwwLTItMC45LTItMnMwLjktMiwyLTJzMiwwLjksMiwyUzE3LjEsMTgsMTYsMTh6IE0yNiwyMwoJYy0wLjYsMC0xLTAuNC0xLTFzMC40LTEsMS0xczEsMC40LDEsMVMyNi42LDIzLDI2LDIzeiIvPgo8cmVjdCBpZD0iX3gzQ19UcmFuc3BhcmVudF9SZWN0YW5nbGVfeDNFX18yMzJfIiB5PSIwIiBjbGFzcz0ic3QwIiB3aWR0aD0iMzIiIGhlaWdodD0iMzIiLz4KPC9zdmc+Cg==;" vertex="1" parent="kl_BWKaGxSFyJq98Dep9-153">
          <mxGeometry x="10" y="10" width="30" height="30" as="geometry" />
        </mxCell>
        <mxCell id="kl_BWKaGxSFyJq98Dep9-169" value="&amp;nbsp;Data&amp;nbsp;" style="edgeStyle=orthogonalEdgeStyle;rounded=0;orthogonalLoop=1;jettySize=auto;html=1;" edge="1" parent="1" source="kl_BWKaGxSFyJq98Dep9-100">
          <mxGeometry x="0.5979" relative="1" as="geometry">
            <mxPoint x="599" y="840" as="targetPoint" />
            <Array as="points">
              <mxPoint x="520" y="925" />
              <mxPoint x="520" y="840" />
            </Array>
            <mxPoint as="offset" />
          </mxGeometry>
        </mxCell>
      </root>
    </mxGraphModel>
  </diagram>
</mxfile>
